/* XPM */
static char *_39a1687fd4a49aad18c8e0c56e54af5e6vlbsPF2xLLZ9v5[] = {
/* columns rows colors chars-per-pixel */
"64 64 116 2 ",
"   c #2B1A13",
".  c #331E16",
"X  c #381F16",
"o  c #341F18",
"O  c #362017",
"+  c #3A2117",
"@  c #362119",
"#  c #3B231A",
"$  c #3E291F",
"%  c #3F2920",
"&  c #43251A",
"*  c #48271B",
"=  c #46291D",
"-  c #4B2A1D",
";  c #532D1E",
":  c #592E1F",
">  c #5A301F",
",  c #60321F",
"<  c #442B22",
"1  c #4E2D21",
"2  c #542E21",
"3  c #592F21",
"4  c #563122",
"5  c #5C3222",
"6  c #593428",
"7  c #643523",
"8  c #693724",
"9  c #653826",
"0  c #693923",
"q  c #683824",
"w  c #693825",
"e  c #6A3825",
"r  c #6B3825",
"t  c #6B3927",
"y  c #6E3925",
"u  c #6C3A25",
"i  c #6F3A24",
"p  c #603728",
"a  c #643828",
"s  c #653928",
"d  c #663A29",
"f  c #663C2A",
"g  c #693B28",
"h  c #683B2A",
"j  c #693B2A",
"k  c #6C3A28",
"l  c #6D3D2B",
"z  c #6E3D2B",
"x  c #703925",
"c  c #703B25",
"v  c #713B26",
"b  c #733B26",
"n  c #763C26",
"m  c #763E27",
"M  c #7A3E27",
"N  c #743E2A",
"B  c #703E2C",
"V  c #703F2D",
"C  c #7A3F28",
"Z  c #7A3F29",
"A  c #6C402E",
"S  c #6F422F",
"D  c #72402D",
"F  c #72412F",
"G  c #75402C",
"H  c #75422E",
"J  c #76422F",
"K  c #7C412B",
"L  c #78432F",
"P  c #7B432F",
"I  c #7D432E",
"U  c #7F442D",
"Y  c #744331",
"T  c #794430",
"R  c #7B4531",
"E  c #7B4632",
"W  c #7C4531",
"Q  c #7F4630",
"!  c #7D4632",
"~  c #7C4633",
"^  c #7E4834",
"/  c #804128",
"(  c #834128",
")  c #81452D",
"_  c #82452E",
"`  c #84462F",
"'  c #86472F",
"]  c #8B492F",
"[  c #814730",
"{  c #814732",
"}  c #844730",
"|  c #834931",
" . c #854A32",
".. c #854934",
"X. c #864B34",
"o. c #884831",
"O. c #884932",
"+. c #894B33",
"@. c #8A4B33",
"#. c #894C35",
"$. c #8D4D34",
"%. c #8C4C35",
"&. c #8C4E35",
"*. c #8F4F36",
"=. c #8F4E37",
"-. c #844C38",
";. c #8C4E38",
":. c #904F36",
">. c #924F38",
",. c #8D513A",
"<. c #935137",
"1. c #93523A",
"2. c #9A563D",
"3. c #9E583F",
"4. c #9C5A43",
"5. c #B4684D",
/* pixels */
"    o . . . . . . . .   . . . o . O O O .   .   O . . . . O . O . . O O O O O + O O O O + O O O O O + O O O O O O O O O . . @ @ ",
". = - - ; 1 1 1 2 4 4 : : 2 2 : : ; ; ; 4 ; ; - - ; ; ; 4 ; ; ; ; - - - - - - - - ; ; - ; - - - - - - ; - : ; ; 1 - = & # & # @ ",
"# 2 4 r 7 4 2 > 7 7 r 7 8 0 8 8 q r q r 7 9 7 7 q 0 q 6 j r j j f 9 7 6 a 5 > > 7 5 5 5 7 7 7 7 > 7 9 7 7 0 q q 7 7 > : : 7 - @ ",
"# 2 5 M r 7 5 4 4 7 0 7 7 5 5 5 7 b r 0 7 7 0 7 r r i G J R ! ! R R D 9 p 5 5 5 5 4 5 5 7 7 q 7 7 5 7 7 7 7 > 7 7 5 5 5 7 r 4 O ",
"& - 7 Z b b M b r r r 7 7 7 5 7 6 i r d 7 8 l b I I Q [ +.+.%.X.+.| P D z f 9 6 6 6 4 4 4 4 7 5 5 5 : 5 5 5 7 7 7 7 > 7 5 b : O ",
"# ; 7 m b ( K b r 7 5 4 2 4 4 5 6 A A l l Y I { ' ' X.&.*.*.$.$.%.+.+.X.' ) ! ' P P L D Y D N J J 9 5 5 5 5 9 i r 7 q > 5 u 1 O ",
"o - 7 M m Z b 7 J R Y Y Y R R ! ~ -.4.-.X.~ ~ R L L E E L z f d f d f 9 f f j r z f 6 5 5 5 4 5 4 : 4 - ; - : 4 > ; 5 7 > r ; O ",
". - 3 b b M 7 = # # @ @ # @ # # @ % < < < < < < < < < < $ $ # $ # # # # # @ # # # # # & # # X o # # O # # # @ @ # = b 7 7 i 4 O ",
"  = 2 b r Z 3 o                                                                                                   & M , x m , + ",
"  # 2 b b Z :                                                                                                     & M , 0 b 7 + ",
"  O 1 b i Z ;     & + > : 5 - + & .       . - 2 - - - & X & & . + # & : ; = & & & & .         = X * , : & + &     & m > 7 r : + ",
"  & 1 b r m ;     # & & ; : ; - # # : 7 - X o o O O + # & - - o . & # O . . . @ @ o o & 8 4 # & * ; : * X & X     - M 7 7 7 : # ",
". # 2 i r b ;     & : : + & : ; . # ( 3.1.2 # 7 Z Z 3 # # . # & O & .   # 4 Z Z 7 # 2 >.4.) # # ; : & X - ; +     - m > ; 5 : # ",
". # 1 i i b ;     X ; & : & :   X # 2 { j # # - 4 L 2.Z #     # # & o O Z 2.K 4 2 # # b { 2 & & . : * : & ; +     & r q - 5 -   ",
". o 1 i r i ;     X - & & * & X # # .     o . . # # L ) #     * & X & # { I # $ # # @ @ o # # & X & * * - - O     # q q = ; =   ",
". o 1 i 7 7 ; .     X       * > 3       . * - # . # B ;.= . o o * + . - $.l # @ & - = .       3 , *     . O       # ; 5 = - &   ",
". o 3 k l 7 2     o * =       & * X X & * &   X # # O.! & . o &       # ! O.# # &   X * + + X & *   X X - =       . - 5 - 4 =   ",
". # 2 T X.d -     = Z >.-     & ; * & X X X   . # { :.= . # & & : & # . = ..{ #     X & + + & : &     ; >.L -     o - 5 2 4 & . ",
"o X 3 l X.j 1     = } 2.2   . = *   . : * .   . N X.< #   & @ . & ; = @ # < ..N X   X & : .   & * .   4 2.} #     . ; 7 > , - X ",
"X & 3 l X.j 1       = 1 X     ; - X X X .   . X - } ..& @ .   . o o @ # & O.{ 1 X .   X X + X ; ;     # 1 &       . 4 7 4 7 ; + ",
"- - 4 B X.j 2       @ @ . . * O ; * 7 o - 8 X X # = ) { # & 4 r i 5 = # { ) - # . X 8 ; X 5 = - X * . @ $ @       4 D r 7 r : & ",
"; - 4 B X.d -       @ & o @ # & : #     & * & & @ # - { N d $.4.4.$.r N ..= @ . & & ; & .   & : & + @ # & @       6 Y b 7 r : & ",
"3 - 6 Z X.j 1       # 2 = X - 2     . @ # # . + & @ # - 7 $.R % @ Y ;.6 1 # . & # # # # @ X     ; - + - 2 @       1 Y B 7 r : # ",
": ; 4 I O.k =       @ $.6 # $ @ o o # = Z r # . & 2 @ # j >.1 o o 1 $.i # # 2 & # # i m = # # @ o + # 5 ;.# .     1 ..J 9 b > + ",
": ; 5 ) O.j =       @ } { - & & & 1 r O.$.1.l & @ # o # J 1.& & & X ;.L # # & # = G 1.:.O.i - = & & = | | #       1 ,.I j b 5 + ",
": ; 5 I X.z &       # k 4.} i r i Z 1.{ - 6 +.I = @ @ # I ! # X .   ! I # $ # = I O.6 < { 1.I 8 i b { 4.r # .     $ ,.+.D D > & ",
": 4 5 ) O.j #       o < j O.:.$.$.1.7 # # # 1 b Z 7 B r j - # # &   - i 8 B p m r 1 # @ # 5 1.$.$.;.X.f = # .     $ <.1.I I 0 + ",
": 4 5 I %.z @     . o o . # - - - @ . . o @ < ! >.$.{ %.{ b # # X # j ..O.o.%.>.R 1 @ #       & & & . .   .       $ %.2.+.' i & ",
": 4 7 { 1.^ %     # +   .     .     . & . p 1.O.5 & o X # ..! @ . ! ..# # @ < 5 O.1.7 . *                 + +     & $.3.<.] b & ",
": 5 7 } 1...<     # & * X       # 7 o . 5 $.R #         + 4 Z 1 - Z 3 @ .     . # R ;.4   X , X       . & & +     & *.3.<.<.i & ",
"- 5 I :.1.^ <     X & . - *   X -   o = >.j # . o & : *   # r $.$.8 # . * : & o . # j >.&     & .   & - . & O     $ ' 3.2.<.D - ",
"& 8 O.<.1.{ <     + + & o X X X     o 7 ;.= = - * 3 ; .   # $.5.5.$.# . X : * * & = = >.7 .     . X     & + +     # ) 2.<.&.g - ",
"- I <.2.2.{ &     X X * X & - * X   o 7 ;.= - 2 & & ; o # @ :.5.5.$.&   o : - - - = = ;.p o     . .   . & X X     & L 1.<.O.i - ",
"- ) <.<.2.X.<     . & . - *   X 3     = 1.f # . o * : = . # i O.X.i #   = 3 * X . # d 1.= .   - X   * * . & X     # J 1.:.) p 2 ",
"- N 1.:.2.X.<     X & * X       & p .   5 $.R & X     . @ 3 M - 1 b 3 o         # ^ ;.2 . o 7 X       X & * #     # Y ;...j 5 : ",
"- b ] O.2.O.<     X X                 & X p 1.+.5 & @ # & { ! o # ! } = o o & 5 %.1.5 . & .   .   .       # #     # R 1...p 5 : ",
"+ u ) ' 1...<     . . .   . = = X       o # - ) >.$.O.O.X.k o     o k ..+.O.$.>.! - X @ . . X = ; - # . o . .     @ ^ $.} j 5 3 ",
"& p M L %.) &     . + & j O.;.$.:.>.3 # # # 1 j b 7 B j r - o & &   1 i r B 7 N k 1 # @ # 7 1.$.$.$.O.j < @       % X.$.} p 5 : ",
"+ 7 u r ..) #     . # i 2.{ b i i Z <.} < 6 X.! 1 # # # I ! # * o . R J # # @ = W o.6 1 ^ 1.I i i r { 2.k @       < ..X.) a : 3 ",
"+ > r f { I #     . # { { < & = = 1 8 %.$.1.Z & # & # # T ,.# X X o 1.J # o # X = b 1.$...i - = = & 1 { } # .     2 ....| 9 4 : ",
"& > r p L ! #       @ -.6 # # # # $ # 1 b j & o & 2 # # d $.< - & = $.j # # 2 & X # 8 Z * X o o @ # # 5 ;.@       1 -.{ I 5 2 3 ",
"& : i 5 b z X       # 2 1 # - ;   . # # # # # # & O # - a ;.~ o o R $.7 - # o & # . # # X .     2 1 # = 2 X       = L N b 2 - ; ",
"& : 0 7 r z .       X & @ o # & 2 & X # - ; & & . # 1 ' Z 7 $.4.4.;.7 Z O.= # O & # - & . . + : & # @ @ & @       = p i r 2 - ; ",
"& ; 7 > z d .       O # . . * X ; = , # 2 8 #   O = ) ..# & 5 j b 4 & # } ) = # o # 7 - X , * ; + & .   @ @     . - , r p 3 * * ",
"& - 7 4 r z .       = ; . . . ; - X X X .     . - ..X.# # . X o .   . @ < { { - # .   . . X X * ;     . - * .   X - 5 7 7 2 & # ",
"O - 7 > g g .     & ' 2.:     * *   . ; - X     D X.- # @ & &     .     # < ..B .   + * : .   * * .   ; 4.{ &     & 5 7 7 2 # X ",
"  & 5 > i a O     & I >.-     # ; & & & & X     # I %.= . . ; ; & - 2 . & O.{ $     X & X & & ; &     ; <.Z -     - p 7 i 2 X o ",
"  * 4 > q 4 +     X * * X .   * & X X X * &   & # # ..! &   + X = X . & ! O.& # #   X & + & X & =       & = .     ; p r r 2 X . ",
"  & > 5 r 0 :       + # .   * , :       O - - & @ # l $.= . & X       = $.B # @ # - & o       : , *       .       - 7 8 i - o X ",
"  & 5 , b r ;     + ; - & & & X # # @ @ @ @ # @ % # W | # . & - .   . # ' L # O . O O     O + + X & * & * - &   . - i 8 k 1 o . ",
"  & 7 8 b r - .   + ; & : & >   @ # : ..i # # : 4 Z 2.l o . X ; & o   # Z 2.K 4 ; # # z ' ; # +   : & : & ; X     ; b i 8 2 # . ",
"  - 7 i 0 b ; .   O ; ; & & : - @ & ( 3.1.2 # p Z Z 3 #   & + & * & # $ # 4 Z K 5 # 1 <.3.) # X * : & & ; : &     ; b i i 2 #   ",
"  ; 7 q 0 0 ; @   + + X : : - - # + > 7 = # O O @ o . X . & : o # - # # O O O @ @ o o * p : O + * ; ; ; & & X     2 b i b 1 &   ",
"  ; > b 0 i 4 +   & & ; ; > ; & +       . + = = &   # X & : - * & + & X X & + + & # + o       - & : , ; 3 X &     2 b j r 2 #   ",
". ; : b 0 7 4 #                                                             X + o                               X ; Z b i 2 #   ",
"X : : > i 7 5 & X                                                                                               . 2 Z b b 2 =   ",
"+ 4 : 7 x > 5 - & + & & = & & & # # # # # $ # $ @ # # # # @ $ @ o @ # < 1 1 1 6 6 6 4 6 6 6 6 6 6 1 @ @ @ # @ # = 7 C b n 3 2 . ",
"+ > 4 7 m u 8 , , 7 8 8 r N ! ^ X.{ ^ R J J -.,.,.-.4.1.4.4.,.1.1.1.,.;.-.-.R ! { | R R L R ! ! ~ ^ d 2 - 2 3 5 7 b C n C 5 ; o ",
"+ > ; 7 u M J u 8 8 8 , 7 9 r 7 r 7 5 5 5 5 A f A Y R R ! ..%.+.1.1.2.2.2.2.4.1.) G 9 9 p 7 5 5 5 4 2 2 4 5 7 8 b / / n b 5 ; X ",
"# ; - , 0 7 0 i i 8 , 7 5 4 5 5 5 4 4 1 ; 4 ; ; 6 5 d Y R ....%.%.;.X.$.1.$.) ) A r 7 7 0 0 r 7 7 7 7 7 7 r k i b M b b Z 7 ; # ",
"# - - 4 7 7 i i i 0 0 0 9 5 5 > : 4 ; 4 : 4 4 4 6 6 d f A A J L R | ! ! R l i r 7 7 q 7 q r b 7 5 5 5 7 7 8 7 3 2 5 5 8 Z 7 ; # ",
"O = = - ; - ; ; : 4 ; 4 : ; 4 : ; ; - = = - 4 4 5 a f A D A z J Y Y D j j 7 r p q q q 7 7 r r 7 7 r 7 8 7 8 7 7 5 2 3 7 y 2 2 # ",
"  # # # = = = - - - - ; ; - - - = & = = = - - - - 4 5 6 6 5 p p 5 6 2 ; 2 ; : * - - - ; : ; ; : > : 4 : 2 2 4 2 2 1 1 2 - - = . ",
"              .     .   O O     .   .   o O O O O # # + $ # # @ # + . . . . . . O   O . O O O . . o o   . . . . . . . . . o     "
};
