/* XPM */
static char *ca8ca8457acd4ff4d5ddc0b66f1b70418hEVKilanm5okV1f[] = {
/* columns rows colors chars-per-pixel */
"64 64 151 2 ",
"   c None",
".  c #000004",
"X  c #0E0C16",
"o  c #2F0E04",
"O  c #300D04",
"+  c #311107",
"@  c #311208",
"#  c #1D1A27",
"$  c #1E1C29",
"%  c #2A292C",
"&  c #312A27",
"*  c #32312F",
"=  c #333331",
"-  c #AC1F06",
";  c #A41D02",
":  c #A62006",
">  c #AE2106",
",  c #B42606",
"<  c #BB2A06",
"1  c #BF340A",
"2  c #D60C00",
"3  c #C82305",
"4  c #C12F06",
"5  c #D72302",
"6  c #DC2604",
"7  c #C43004",
"8  c #C83104",
"9  c #E52503",
"0  c #ED2301",
"q  c #EA2A06",
"w  c #EC2D0A",
"e  c #F02A00",
"r  c #F02F0B",
"t  c #EF3405",
"y  c #EF320C",
"u  c #EE3D0E",
"i  c #F33300",
"p  c #FA3A00",
"a  c #F0320D",
"s  c #F33B0D",
"d  c #F83F08",
"f  c #EF3411",
"g  c #EF3913",
"h  c #F03512",
"j  c #F23C12",
"k  c #FC4306",
"l  c #FF4907",
"z  c #F5420D",
"x  c #F9460B",
"c  c #FA4B0C",
"v  c #EE4B1D",
"b  c #F34314",
"n  c #F84710",
"m  c #F74810",
"M  c #F84910",
"N  c #F24419",
"B  c #EB4828",
"V  c #F35321",
"C  c #EC4F31",
"Z  c #EC5132",
"A  c #F68765",
"S  c #F6916F",
"D  c #F58F70",
"F  c #F79273",
"G  c #F69678",
"H  c #413C92",
"J  c #4B478D",
"K  c #4B4796",
"L  c #4D4799",
"P  c #4D4999",
"I  c #514C9F",
"U  c #655D96",
"Y  c #4E49A2",
"T  c #534EA4",
"R  c #5652A7",
"E  c #5853A7",
"W  c #5650A9",
"Q  c #5B56AA",
"!  c #5E5AAD",
"~  c #615CAE",
"^  c #635EB0",
"/  c #6560AF",
"(  c #6661B2",
")  c #6A65B4",
"_  c #6D69B6",
"`  c #6E6AB8",
"'  c #726BB7",
"]  c #706DB9",
"[  c #716DBA",
"{  c #726CBA",
"}  c #736CB9",
"|  c #786FBA",
" . c #7472B5",
".. c #7570B5",
"X. c #7770BB",
"o. c #7C74BC",
"O. c #7E74C0",
"+. c #8176BE",
"@. c #8278BF",
"#. c #8277C2",
"$. c #857BC2",
"%. c #8A7EC5",
"&. c #877CC9",
"*. c #E3B4AC",
"=. c #FAC6BF",
"-. c #8D81C6",
";. c #8E82CA",
":. c #9385CB",
">. c #9488CB",
",. c #9A8CCE",
"<. c #9F9DC3",
"1. c #9F9BCF",
"2. c #9285D2",
"3. c #9C8CDD",
"4. c #9F91DE",
"5. c #A292DE",
"6. c #AAA7D7",
"7. c #ABA8D7",
"8. c #ABA9D7",
"9. c #A5A3D4",
"0. c #B4B1D9",
"q. c #B9B7DC",
"w. c #BBB9DE",
"e. c #BCBADE",
"r. c #BBB9DD",
"t. c #9E8FE4",
"y. c #C1BDDF",
"u. c #FACCC6",
"i. c #FACCC5",
"p. c #FACAC2",
"a. c #F3CAC4",
"s. c #FDD2C4",
"d. c #FFDFCC",
"f. c #FBE2DD",
"g. c #C6C1E1",
"h. c #CBC5E4",
"j. c #CEC8E6",
"k. c #D2CCE7",
"l. c #D3CDE8",
"z. c #D8D7EC",
"x. c #E4DCF5",
"c. c #E7E7E7",
"v. c #E7E8E7",
"b. c #F4F4ED",
"n. c #E8F2F3",
"m. c gray97",
"M. c #F7FDFF",
"N. c #FEFEFE",
"B. c white",
"V. c #FEFFFF",
"C. c #FFFFFF",
/* pixels */
"                                                                                                                                ",
"                                                                                                                                ",
"                                                                                                                                ",
"                                                                                                                                ",
"                                                                                                                                ",
"                                                                                                                                ",
"                                                                                                                                ",
"                                                                                                                                ",
"  J J P K K K K K L L L L L P P L L L P H <.b.v.c.c.c.c.c.c.c.c.v.c.c.c.c.c.c.c.c.n.*.2 5 5 5 5 5 5 5 5 5 5 5 3 5 5 5 5 3 3     ",
"  P Y Y _ ..'  .....'  . . . . ..... . ._ r.N.m.m.m.m.m.m.m.m.m.m.m.m.m.m.m.m.m.m.M.a.B Z Z Z Z Z Z Z Z Z C C C C C C 9 9 6 :   ",
"  R R 1.0.8.6.6.7.6.7.7.7.8.7.7.7.7.7.6.9.z.V.N.N.N.N.N.N.N.N.N.V.V.V.V.N.N.N.V.V.V.f.A F F F G F G S S F S D D S S G F y 9 ;   ",
"  R ( O.` ` ` ` ` ` ` ` ` ` ` ` ` ` ] ] / e.V.V.V.V.V.V.V.V.V.V.V.V.V.V.V.V.V.V.V.V.p.e b b b b z b b z b b z z z z z V v 9 -   ",
"  R ~ ` ` _ ` ` ` ` [ [  .` [ ` [ [ [ [ ( w.V.V.V.V.V.V.V.V.V.V.V.V.V.V.V.V.V.V.V.V.i.t b b b M b b b b b b b z z z z u z 9 >   ",
"  R ~ ` _ _ ` ` [ [ ` ` [ [ ` X.] ] ] } ( w.V.V.V.V.V.V.V.V.V.V.V.V.V.V.V.V.V.V.V.V.i.t b b N b N b N b b b b b b b z b u 9 -   ",
"  R ~ ` _ ` ` ` ` ` ] ` ] ' [ [ ' [ [ [ ( y.V.V.V.V.V.V.V.V.V.V.V.V.V.V.V.V.V.V.V.V.u.t v b v v b v v b v b b b b b u z u q -   ",
"  R ~ _ ` ` ' ` ` ` ` ` ] [ ' [ ] [ [ { ( e.V.V.V.V.V.V.V.V.V.V.V.V.V.V.V.V.V.V.V.V.u.i N N b b b b N b b b b b b b b z u q -   ",
"  R ~ ` ` ` ` ` ` ` ` ` ] ] ] ] _ ] ` ' ( e.V.V.V.V.V.V.V.V.V.V.V.V.V.V.V.V.V.V.V.V.u.i N N N N v m b N b b N b s b b u u q >   ",
"  R ~ ) ) ` _ ` ` _ ` ` _ ] ` _ ] _  .' ( e.V.V.V.V.V.V.V.V.V.V.V.V.V.V.V.V.V.V.V.V.u.a N N N N N v b N N b b N N b b u u 9 >   ",
"  R ~ _ _ _ ) _ _ _ _ ` ` ` _ ] ` ` ` ' ( r.V.V.V.V.V.V.V.V.V.V.V.V.V.V.V.V.V.V.V.V.i.i B N N N N N v b N N N N j g b b g q -   ",
"  R ~ ) ) _ _ ) _ ` _ _ _ ] ` _  ._ _ _ ( r.V.V.V.V.V.V.V.V.V.V.V.V.V.V.V.V.V.V.V.V.i.a N N N N N N N N N j N N b b j z z q -   ",
"  R ~ ) ) ) ) ` ) _ _ _ ` _ _ _ ' _ ` ` ( r.V.V.V.V.V.V.V.V.V.V.V.V.V.V.V.V.V.V.V.V.i.i N N N N N N j N N N N j N j j u u q -   ",
"  R ~ ) ) ) ) ` _ _ _ ) _ _ _ _ ` ` ` ` ( r.V.V.V.V.V.V.V.V.V.V.V.V.V.V.V.V.V.V.V.V.u.y N N B j N N N N N j j N j b j b u q -   ",
"  E ~ ) ) ) ) ) ( _ ) _ _ ) _ _ _ ) ) ` ^ r.V.V.V.V.V.V.V.V.V.V.V.V.V.V.V.V.V.V.V.V.p.w N N j N N g N N N N j N j b j j g w -   ",
"  E ! ( ) ( ) ) _ ) _ ) _ _ _ _ _ _ ` ) ^ r.V.V.V.V.V.V.V.V.V.V.V.V.V.V.V.V.V.V.V.V.=.0 h h h h f f f f g g g j b j j g u q -   ",
"  E ! ( ( ) ( ) ) ) ) ) _ ( _ _ ) ) ) _ ^ r.V.V.V.V.V.V.V.V.V.V.V.V.V.V.V.V.V.V.N.N.p.0 a h h h h h h h a h h w w y h h u q -   ",
"  E ! ( ( ) ) ) ( ) ) ) ) _ _ ( _ ) _ ) ! r.V.V.V.V.V.V.V.V.V.V.V.V.V.V.V.V.V.V.N.N.p.0 h h h h h h a h a a h a a r r r w w -   ",
"  E ! ( ( ( ) ( ) ) ) ) _ ( ( _ _ ) ) ) ^ r.V.V.V.V.V.V.V.V.V.V.V.V.V.V.V.V.V.V.N.N.p.0 h h h h h h r h h h h r r y r r w q -   ",
"  E ! / ( ( ( ( ( ( ( ( ) ( _ ( ) ) ) ( E 0.V.V.V.V.V.V.V.V.V.V.V.V.V.V.V.V.V.V.N.N.p.0 h h h h h h h h h a r h r a r w w w -   ",
"  E ! / ( / ^ ( ( ( ( ( ) ( ) ) ( ( ~ ! W 0.V.V.V.V.V.V.V.V.V.V.V.V.V.V.V.V.V.V.V.V.p.0 h h h h h h h h a h r a h a r r w w -   ",
"  E Q / ^ ( ( ( ( ( / ( ( ) ( ( ~ ! ~ ~ W 0.V.V.V.V.V.V.V.V.V.V.V.V.V.V.V.V.V.V.N.N.p.0 h h h h h h h h h h a h r a r r w w -   ",
"  E ! ~ ^ ^ ( ~ ( ( ( ( ( ( ~ ! ~ ~ ~ ~ W 0.V.V.V.V.V.V.V.V.V.V.V.V.V.V.V.V.V.V.N.N.u.0 g g h h h h h a h h r a a a h w w q >   ",
"  E Q / ^ ^ ^ ( ^ ( ( ( / ! ! ! ~ ~ ~ ~ W 0.V.V.V.V.V.V.V.V.V.V.V.V.V.V.V.V.V.V.N.N.p.0 h g f h h h h h h h a h h r w y w w -   ",
"  W Q ^ ^ ! ^ ^ ^ ^ ~ ~ Q ~ ~ ~ ~ ~ ~ ~ W 0.V.V.V.V.V.V.V.V.V.V.V.V.V.V.V.V.V.V.N.N.p.0 h h h h h h h h h a a a a r r r w w -   ",
"  W Q ! ^ ^ ! ^ ^ ~ ~ ~ ~ ~ ~ ~ ^ ~ ^ ^ W 0.V.V.V.V.V.V.V.V.V.V.V.V.V.V.V.V.V.V.N.N.p.0 h h h h h h h h h h r h a f r r w w -   ",
"  W Q ^ ! ! ^ ^ ! Q ! ~ ~ ~ ~ E ! ^ ~ ~ W 0.V.V.V.V.V.V.V.V.V.V.V.V.V.V.V.V.V.V.N.N.p.0 h h h h h h h h h h a h a r r r w w -   ",
"  Q W ! ^ ! ! ! ! ~ Q ~ ! ~ ~ ~ ^ ! ~ ~ W 0.V.V.V.V.V.V.V.V.V.V.V.V.V.V.V.V.V.V.N.N.p.0 h h h h h h h h h f r a a r a r w w -   ",
"  E Q ! ! ! ! Q ! Q ~ ~ ~ ~ ~ ~ ! ! ^ ^ W 0.V.V.V.V.V.V.V.V.V.V.V.V.V.V.V.V.V.V.V.V.p.0 h h h h h h h h a h r h r a a w w w -   ",
"  E Q ! ! Q ! ! Q ~ Q ~ ~ ~ ~ ~ ! ^ ^ ! E 0.V.V.V.V.V.V.V.V.V.V.V.V.V.V.V.V.V.V.V.V.p.0 h h h h h h h h a a h r r a r r w w -   ",
"  E R Q Q ! ! Q ! ~ ! ^ ~ ~ ~ ~ ! ^ ! ^ T 0.V.V.V.V.V.V.V.V.V.V.V.V.V.V.V.V.V.V.V.V.u.0 g h h h h h h h h h a h r a w a w w -   ",
"  E E ! Q Q ! ! ! Q ~ Q ~ ~ ~ ~ ! ! ! ! R 0.V.V.V.V.V.V.V.V.V.V.V.V.V.V.V.V.V.V.N.N.p.0 h h h h h h h h a h a r a r w f w w -   ",
"  Q E ~ ~ ~ Q ~ ~ ~ ~ ^ ^ ^ ~ / ^ ^ ^ ^ E 0.V.V.V.V.V.V.V.V.V.V.V.V.V.V.V.V.V.V.V.V.=.0 h h h h f h f y h a h a a r a r y q >   ",
"  ! ~ ~ ~ ~ ~ ~ ( ~ ^ ^ ^ ^ / ^ ^ ^ ^ ^ ! 0.V.V.V.V.V.V.V.V.V.V.V.V.V.V.V.V.V.V.V.V.p.0 j h h j h h j h a h a s r h i a t w >   ",
"  ~ ~ ^ ^ ^ ^ ^ / ( ( ^ ) ) ) ) ) ) ) ) ~ 0.V.V.V.V.V.V.V.V.V.V.V.V.V.V.V.V.V.V.V.V.p.e h j j h j j j g j j a h h a a a y w >   ",
"  ^ ~ ) ) ) ) ) ) ) ) ) ' ) ) ) ) _ ) _ ~ r.V.V.V.V.V.V.V.V.V.V.V.V.V.V.V.V.V.V.V.V.p.e j j j j j j a j j s s s a s a a y y ,   ",
"  ) ^ ) ' ) ' ) ' ) ' _ ' ' ' ' ' ' ' ' ^ y.N.N.V.V.V.V.V.V.V.V.V.V.V.V.V.V.V.V.V.V.i.e b j j j j j j j j s s j s a s a t t ,   ",
"  ' ) ' ' ' ' | | ' | | ' | ' | | | | | ' y.N.N.V.V.V.V.V.V.V.V.V.V.V.V.V.V.V.V.V.V.i.e z j j j j j s b j s j s s s s s u y ,   ",
"  | ' | } } | +.X.o.| | o.o.X.o.o.o.| +.' y.V.V.V.V.V.V.V.V.V.V.V.V.V.V.V.V.V.V.V.V.i.e b b j b b j b b j j d j s s s s s i ,   ",
"  O.} | +.+.+.| o.+.+.+.+.+.+.+.o.+.+.+.| y.V.V.V.V.V.V.V.V.V.V.V.V.V.V.V.V.V.V.V.V.i.i n b n n n b n z n j n z s d s s s s <   ",
"  O.O.#.#.#.+.#.$.$.@.@.$.@.@.%.@.@.-.@.+.h.N.N.V.V.V.V.V.V.V.V.V.V.V.V.V.V.V.V.V.V.s.i b b M b d b n b z z n z z z s d s s <   ",
"  #.#.#.&.%.$.$.%.$.-.%.-.%.%.-.:.@.-.-.+.h.N.N.V.V.V.V.V.V.V.V.V.V.V.V.V.V.V.V.V.V.s.i M M M M n n n n m z z z z z x z k d <   ",
"  &.#.%.%.%.%.%.:.%.-.-.-.-.-.-.-.-.-.-.@.h.N.N.V.V.V.V.V.V.N.N.V.V.V.V.V.V.V.V.V.V.s.p M M c c n n n n m z c c x x c z d d 4   ",
"  &.%.:.:.%.:.:.:.:.:.:.>.>.>.>.>.>.>.>.-.k.N.N.V.V.V.V.V.V.N.N.V.V.V.V.V.V.V.V.V.V.s.p M M c V c n c n x c m c x x z k z x 4   ",
"  2.%.2.>.>.>.>.,.>.,.,.>.,.,.,.,.,.,.,.:.k.V.N.V.V.N.N.N.N.N.N.V.V.V.V.V.V.V.V.V.V.s.p M M M c M M c c c c c c c x x k k k 4   ",
"  2.:.>.,.,.,.,.,.,.,.,.,.,.,.,.1.,.,.,.:.l.V.N.N.N.N.N.N.N.N.N.N.N.N.N.N.N.N.N.V.V.s.p c c c c c c c c c c c c c c l x x k 8   ",
"  3.:.,.,.>.,.,.,.,.,.,.,.,.,.,.,.,.,.,.:.l.N.N.N.N.m.N.N.N.m.N.m.N.N.m.N.m.m.N.N.V.s.p c c c c c c c c c c c c x x x x x k 1   ",
"  U t.3.t.3.5.3.5.5.5.5.5.5.5.5.5.5.5.5.3.x.V.V.N.N.N.N.N.N.N.N.N.V.V.N.V.V.V.V.V.V.d.p c c c c c c c c c c c l l l l l l k     ",
"    X # # # # $ # # $ $ $ $ $ $ $ $ % $ $ % = * * * * * * * * * * * * * * * * * * = & O @ @ @ @ @ + + @ + + + @ o o + o o .     ",
"                                                                                                                                ",
"                                                                                                                                ",
"                                                                                                                                ",
"                                                                                                                                ",
"                                                                                                                                ",
"                                                                                                                                ",
"                                                                                                                                "
};
