/* XPM */
static char *_3157a17fe9742c28fa72ab6cb44a19eeVbrVeNVqlVKyhii[] = {
/* columns rows colors chars-per-pixel */
"64 64 165 2 ",
"   c None",
".  c #000002",
"X  c #0A1C08",
"o  c #0F2A0B",
"O  c #122C0E",
"+  c #0B6A02",
"@  c #18740E",
"#  c #1D7D11",
"$  c #000043",
"%  c #00004A",
"&  c #000050",
"*  c #00005B",
"=  c #030363",
"-  c #0C0C65",
";  c #13136D",
":  c #222274",
">  c #2D2D7B",
",  c #AB6622",
"<  c #B56C24",
"1  c #BD7226",
"2  c #C07429",
"3  c #C07327",
"4  c #0F8904",
"5  c #0F8704",
"6  c #128C05",
"7  c #168D09",
"8  c #188E0A",
"9  c #1E9413",
"0  c #228814",
"q  c #229615",
"w  c #239B16",
"e  c #26971A",
"r  c #269B1A",
"t  c #299B1C",
"y  c #299519",
"u  c #26A119",
"i  c #2BA21C",
"p  c #2DAB1D",
"a  c #26A017",
"s  c #31A41E",
"d  c #30AD1F",
"f  c #2FB21C",
"g  c #31B31F",
"h  c #32B81F",
"j  c #2EA420",
"k  c #2FAC20",
"l  c #32AD21",
"z  c #36A622",
"x  c #34B423",
"c  c #36BB25",
"v  c #39BE25",
"b  c #3BBF28",
"n  c #3AC426",
"m  c #3ECB27",
"M  c #3EC728",
"N  c #3FCC29",
"B  c #40CD27",
"V  c #41CC2A",
"C  c #44D32C",
"Z  c #45DA2A",
"A  c #40D227",
"S  c #4BEB2E",
"D  c #47E52D",
"F  c #4DEB31",
"G  c #4DF330",
"H  c #61925D",
"J  c #7EBC79",
"K  c #DE852B",
"L  c #CF8133",
"P  c #DE8833",
"I  c #D58433",
"U  c #E3872D",
"Y  c #E5892C",
"T  c #EC8D2E",
"R  c #F68F29",
"E  c #F6922E",
"W  c #E08730",
"Q  c #E18931",
"!  c #F79432",
"~  c #FA9733",
"^  c #FE9D3E",
"/  c #81BE7B",
"(  c #FA9E41",
")  c #FEA345",
"_  c #FFA64A",
"`  c #FFA94E",
"'  c #FFAB51",
"]  c #F9AA5A",
"[  c #F5A757",
"{  c #FFB254",
"}  c #FFB25B",
"|  c #EFA861",
" . c #FEB460",
".. c #83C17F",
"X. c #353582",
"o. c #3A3A87",
"O. c #46468B",
"+. c #49498E",
"@. c #52528E",
"#. c #4A4A90",
"$. c #544E99",
"%. c #545493",
"&. c #5E5E9B",
"*. c #5B5B97",
"=. c #65659D",
"-. c #605AA3",
";. c #6B6BA2",
":. c #6666A0",
">. c #7373A5",
",. c #7A7AAC",
"<. c #7373A8",
"1. c #766FB1",
"2. c #8484AE",
"3. c #8585B1",
"4. c #8B8BB5",
"5. c #8C8CB8",
"6. c #9393BB",
"7. c #9999BE",
"8. c #86C382",
"9. c #8DCA87",
"0. c #95D38C",
"q. c #99D68E",
"w. c #FEC98E",
"e. c #FECD97",
"r. c #FED19D",
"t. c #FED3A1",
"y. c #948DC2",
"u. c #9D9DC2",
"i. c #A3A3C6",
"p. c #ACACCC",
"a. c #A6A6C8",
"s. c #B1B1CE",
"d. c #B5B5D2",
"f. c #B9B9D4",
"g. c #BFBFD9",
"h. c #B6C0E5",
"j. c #C0C0C0",
"k. c #CCC5CC",
"l. c #C2C2D7",
"z. c #C3C3DA",
"x. c #C9C9DD",
"c. c #C0C8D0",
"v. c #CDCDE1",
"b. c #CBC3E4",
"n. c #D3D3E4",
"m. c #DBDBE9",
"M. c #D9D9E7",
"N. c #C7D1F1",
"B. c #DFE9FF",
"V. c #E3E3ED",
"C. c #E3E3EE",
"Z. c #E9E9F1",
"A. c #EDEDF4",
"S. c gray97",
"D. c #F6F6F7",
"F. c #F3F3F8",
"G. c #F7FFFF",
"H. c #F8F8F8",
"J. c #FBFBFB",
"K. c #FBFBFC",
"L. c #FAFFFF",
"P. c white",
"I. c #FEFEFE",
"U. c #FCFDFE",
"Y. c #FFFFFF",
/* pixels */
"                                                                                                                                ",
"                                                                                                                                ",
"                                                                                                                                ",
"                                                                                                                                ",
"                                                                                                                                ",
"                                                                                                                                ",
"                                                                                                                                ",
"                                                                                                                                ",
"  L K U Y Y Y Y U P P P U Q Q Q Q Q Q Q Q Q Q Q Q Q Q Q Q Q Q Q Q Q Q Q Q Q Q Q Q Q Q Q Q Q Q Q P U P P P K P P Q U P P K L     ",
"  Y T E ` ] ] [ | ] ] ] ] ] ] ] ] ] ] ] ] ] ] ] ] ] ] ] ] ] ] ] ] ] ] ] ] ] ] ] ] ] ] ] ] ] ] ] ] ] ] { ] ] ] ] ] ] ] E E T ,   ",
"  ! E w.t.e.e.e.e.e.e.e.e.e.e.e.e.e.e.e.e.e.e.e.e.e.e.e.e.e.e.e.e.e.e.e.e.e.e.e.e.e.e.e.e.e.e.e.e.e.e.e.e.e.e.e.e.e.r.t.^ ! <   ",
"  ~ )  .` _ ` _ ` ` _ _ ` ` ` ` ` ` ` ` { ` _ ` ` ` ` ` ` ` ` ` ` ` ` ` ` ` ` ` ` ` ` { ` ` ` ` ` ` ` ` ` _ _ ` _ ` _ } ] E 1   ",
"  ~ ) _ ` ` ` ` ` ` ' ` ` ' ` ' ' ' ` ' ' ' { ' ' ' ' ' ' ' ] ' { ` ' ' ' ' ' ' ` ` ' ' ' ` ' ' ` ` ` ` { ` ` ` ` ` ` ` ) ! 1   ",
"  ~ ) _ ` _ ` ` ' ` ' ' ` { ' ' ' ` ' ' ' ' ' ' ' ' ' ' ' ' ' ' ' ' ' ' ' ' ' ' ` { ' ' ' ' ' ` { ` ` ' ` ` ` ` ` ` _ ` _ E 1   ",
"  ! ( _ ` ` ` ` ` ` ' ' ' ` ' ` { ` ` ' ' ' ' ' ' { ' ' ' ' ' ' ' ' ' ' ' ' ' ' ' ' ' { ' ' ` { ' ` { ` ` ` ` ` ` ` ` ` _ ! 1   ",
"  ! ) _ _ ` ` ` ` ' ` ` ` ' ' ' ' ' ' ` ' ` ' ` ' ' ' ' ' ' ' ' ' ' { ' ' ' { ` ' ` ' ` ` ' ' ' ' ' ` ` ` ` ` ` ` ` _ _ _ ~ 2   ",
"  ~ ( ` ` ` ` ` ` ` ` ` ` ' ` ' ' ` ' ' ' ' ' ' ' ' ' ' ' ' ' ' ' ' ' ' ' ' ' ' ' ' ' ' ' ' ` ' ' ' ` ` ` ` ' ` ` ` _ _ _ ! 1   ",
"  ~ ( _ _ _ ` _ ` ` ` ` ' ` ' ' ' ' ' ' ' ' _ ' ` ` ` ` ` ' ' ` ' ' ' ' ' ` ' ` ' ` ' ` ' ` ' ' ' ` ` ' ` ` ` ` ` _ _ ` ) ! 2   ",
"  ~ ) _ _ ` _ ` ` ` ` ` ` ' ` ` ' ' ' ' ' ' ' ' ` ' ' ' ' ' ' ' ' ' ` ' ' ' ' ' ' ' ` ' ' ' ' ` ` ' ` ` ` ` ` ` ` ` ` _ _ ! 2   ",
"  ~ ( _ _ _ _ ` ) ` ` ` ` ` ' ' ' ' ( ' ` _ ' ' ' ' ' ' ' ' ` ' ' ' ' ' ' ' ` ' ' ' _ ` ` ` ` ' ` ` ` ` _ ` _ ` _ ) ) ` ) ~ 2   ",
"  ~ ( ) _ _ _ _ ` ` ` _ ` ` ` ` ` [ ` ` ' ' ` ' ' ` ' ` ' ' ` ' ' ' ' ` ` ` ` ` ` ` ' ` ` ' ` ` ` ` ` ` ` ` _ _ _ _ _ _ ) ! 1   ",
"  ~ ( ) _ _ _ _ _ ` _ ` ` ` ` ` ` ` ` ` ` ` ' _ ` ` ` ` ` ` ` ` ( ' ' ' ` ` ` ` ` ` ` ` ` ` ` ` ` ` ` ` _ ` ` _ _ _ _ ) ) ! 1   ",
"  ~ ^ ) ) ) ) ) ) _ ) _ ) _ _ _ _ _ _ _ _ _ _ _ _ _ _ _ _ _ _ _ _ _ ( ` ` ` _ ) _ ) _ _ _ _ _ _ ` _ ` ) ) ) _ ) ) ) ) ) ) ! 2   ",
"  ^ ) ) _ _ _ _ _ ` ` _ ` ` ` ` ` ` ` ` ` ` ` ` ` ` ` ` ' { { ' ' _ _ ( ( ( ( ( ( ( ( ( ^ ^ ^ ^ ^ ^ ^ ( ) ) ) _ _ _ _ _ ) ^ 2   ",
"  L.L.I.I.I.I.I.I.I.I.I.I.I.I.I.K.K.I.I.I.I.I.I.I.I.I.I.I.N.h.B.K.K.I.I.I.I.I.I.I.I.I.I.I.I.I.I.I.I.I.I.I.I.I.I.I.I.I.I.I.G.c.  ",
"  J.H.I.I.I.I.I.I.I.I.I.I.I.I.I.K.K.I.I.I.I.I.I.I.I.z.; - * O.* * :.I.I.I.I.I.I.I.I.I.I.I.I.I.I.I.I.I.I.I.I.I.I.I.I.I.I.L.S.j.  ",
"  J.H.I.I.I.I.I.I.I.I.I.I.I.I.I.I.I.I.I.I.I.I.I.I.%.= 6.Z.I.m.F.x.;.% A.I.I.I.I.I.I.I.I.I.I.I.I.I.I.I.I.I.I.I.I.I.I.I.I.J.S.j.  ",
"  J.H.I.I.I.I.I.I.I.I.I.I.I.I.I.I.I.I.I.I.I.I.I.*.o.A.l.V.C.d.f.Z.K.u.& I.I.I.I.I.I.I.I.I.I.I.I.I.I.I.I.I.I.I.I.I.I.I.I.J.S.j.  ",
"  J.S.I.I.I.I.I.I.I.I.I.I.I.I.I.I.I.I.I.I.I.I.x.* Z.p.A.f.i.i.p.u.x.K.;.: I.I.I.I.I.I.I.I.I.I.I.I.I.I.I.I.I.I.I.I.I.I.I.K.S.j.  ",
"  J.S.I.I.I.I.I.I.I.I.I.I.I.I.I.I.I.I.I.I.I.I.> 3.x.V.4.3.5.%.>.i.n.s.I.$ M.I.I.I.I.I.I.I.I.I.I.I.I.I.I.I.I.I.I.I.I.I.I.J.H.j.  ",
"  J.S.I.I.I.I.I.I.I.I.I.I.I.I.I.I.I.I.I.I.I.I.= F.v.x.3.=.=.&.;.=.u.C.v.6.=.I.I.I.I.I.I.I.I.I.I.I.I.I.I.I.I.I.I.I.I.I.I.J.S.j.  ",
"  J.J.I.I.I.I.I.I.I.I.I.I.I.I.I.I.I.I.I.I.I.m.* I.K.i.6.;.; = O.,.6.n.I.3.X.I.I.I.I.I.I.I.I.I.I.I.I.I.I.I.I.I.I.I.I.I.I.J.S.j.  ",
"  J.S.I.I.I.I.I.I.I.I.I.I.I.I.I.I.I.I.I.I.I.n.: C.f.i.+.:.= = X.#.,.d.v.i.> I.I.I.I.I.I.I.I.I.I.I.I.I.I.I.I.I.I.I.I.I.I.I.S.j.  ",
"  J.S.I.I.I.I.I.I.I.I.I.I.I.I.I.I.I.I.I.I.I.F.* A.f.p.,.;.%.o.&.,.7.d.n.3.%.I.I.I.I.I.I.I.I.I.I.I.I.I.I.I.I.I.I.I.I.I.I.J.S.j.  ",
"  J.J.I.I.I.I.I.I.I.I.I.I.I.I.I.I.I.I.I.I.I.I.- p.C.i.i.;.,.@.<.2.l.p.I.- p.I.I.I.I.I.I.I.I.I.I.I.I.I.I.I.I.I.I.I.I.I.I.J.S.j.  ",
"  J.J.I.I.I.I.I.I.I.I.I.I.I.I.I.I.I.I.I.I.I.I.5.#.G.v.n.7.u.4.u.d.6.I.g.* I.I.I.I.I.I.I.I.I.I.I.I.I.I.I.I.I.I.I.I.I.I.I.J.S.j.  ",
"  J.S.I.I.I.I.I.I.I.I.I.I.I.I.I.I.I.I.I.I.I.I.I.* 3.I.d.Z.b.s.s.d.I.A.$ d.I.I.I.I.I.I.I.I.I.I.I.I.I.I.I.I.I.I.I.I.I.I.I.K.S.j.  ",
"  J.J.I.I.I.I.I.I.I.I.I.I.I.I.I.I.I.I.I.I.I.I.I.I.* O.F.M.G.v.M.I.z.$ 3.I.I.I.I.I.I.I.I.I.I.I.I.I.I.I.I.I.I.I.I.I.I.I.I.J.H.j.  ",
"  J.S.I.I.I.I.I.I.I.I.I.I.I.I.I.I.I.I.I.I.I.I.I.I.I.O.$ 1.:.a.;.- * l.I.I.I.I.I.I.I.I.I.I.I.I.I.I.I.I.I.I.I.I.I.I.I.I.I.K.S.j.  ",
"  I.I.I.I.I.I.I.I.I.I.I.I.I.I.I.I.I.I.I.I.I.I.I.I.I.I.I.y.-.$.1.b.I.I.I.I.I.I.I.I.I.I.I.I.I.I.I.I.I.I.I.I.I.I.I.I.I.I.I.I.I.k.  ",
"  / / ..........8.8.8.8.8.8.8.8.8.8.8.8.8.8.8.8.8.8.8.9.0.0.0.0.9.9.8.8.8.8.8.8.8.8.8.8.8.8.8.8.8.8.8.8.8.8.8.8.8......./ J H   ",
"  6 4 4 6 6 6 6 7 8 7 7 7 6 8 8 8 8 8 8 8 8 8 8 7 9 7 7 7 7 7 9 8 8 8 8 8 8 8 8 8 8 8 8 8 8 8 8 7 7 7 7 7 6 7 6 6 6 6 6 4 5 +   ",
"  9 9 9 9 q q q q q e q e e e e t e e e e e t e e e e e e e e t e e e e e e e e e e t e e e e r e e e q e q q q q q 9 9 9 9 @   ",
"  w 9 9 w w r w w r t r r e r r r t t t t t t t t t t e t t t t t t t t t t t t t t t t t t r t t e r r e r r w w w w q q q @   ",
"  9 w w r a u u i u i i t i i i t i j t j t i i j t j i j t j j i i i t i i i i j t t j t j i t t i i i i i r u u w a a w w #   ",
"  p u u u i u i i i i i i j j i j j j j j j j j j j j j j j j j j j j j j j j j j j j j j j j i i j i i i i i p i p u u a a #   ",
"  f p u p p p p p p p k l l k k l l l k l l k l l l k l j k l z l l l l l l l l l l l l k l k l k k l k p p p p p p p u p i 0   ",
"  f p p p f d d d l l l k x l l x l x l l l l l x l l l l k l z l l l l l l l l l x l l l l x l l l x l l l g p g p p f p p 0   ",
"  h f f g g g g x h x x x x x x z b x x x x l x c l c c x x b x x x x x b z x x x x x x x x x x x x x x x x x x g g g g g g y   ",
"  n h x h h c c c x c c c c c c b b b c c b b b b c x b x b b x b c b c c b b b b c b c b c b c c c c c c x c c c x h h h h e   ",
"  n c n n c c b v n v v b c b b b b b b b b b b b b b b b b b b b b b b b b b b b b b b b b c b b b b b n n v b v n h n h c t   ",
"  m n n n n n n n n n V M M V V V b V b b M M M M M M M V V b V M M M M M M b V V b M V b V V V M M M M n n n n n n n n m n s   ",
"  N m m m m B B V V V C V V V N C C V V V V C C M V V V V V C V V V V V V V V V V V V V V V V V N N V V V V V V V B m m m m s   ",
"  Z m C A C C C V C C C V C C V C C C C C C C C C C C C C C C C V C C C C C C C V C V C C C C C C C C C V C C C B C A A B A x   ",
"  S C C C C C C C C Z C C C C C C C C C C C C C C C C C C C C C C C C C C D C C C C C C C C Z C C C C C C C Z C C C C C C Z z   ",
"  x G S S S S S F F F F F F F F F F F F F F F F F F F F F F F F F F F F F F F F F F F F F F F F F F F F F F F F F S S S S D     ",
"    X o O O O O O O O O O O O O O O O O O O O O O O O O O O O O O O O O O O O O O O O O O O O O O O O O O O O O O o o O o .     ",
"                                                                                                                                ",
"                                                                                                                                ",
"                                                                                                                                ",
"                                                                                                                                ",
"                                                                                                                                ",
"                                                                                                                                ",
"                                                                                                                                "
};
