/* XPM */
static char *ade599d455f14a39afdeb178b900bbabRhtZVjb4KQLcMc9o[] = {
/* columns rows colors chars-per-pixel */
"64 64 149 2 ",
"   c None",
".  c #010101",
"X  c #0B0B0B",
"o  c #141414",
"O  c #1C1C1C",
"+  c #242424",
"@  c #2D2D2D",
"#  c #343434",
"$  c #3C3C3C",
"%  c #301B58",
"&  c #00266D",
"*  c #002D73",
"=  c #0F2E70",
"-  c #013276",
";  c #033479",
":  c #07397B",
">  c #0D3C7D",
",  c #133E7E",
"<  c #1D3D7A",
"1  c #3C346D",
"2  c #263D7A",
"3  c #363972",
"4  c #5E255D",
"5  c #692458",
"6  c #712D5D",
"7  c #4C346A",
"8  c #583266",
"9  c #652F61",
"0  c #663061",
"q  c #12407F",
"w  c #444444",
"e  c #4B4B4B",
"r  c #545454",
"t  c #5A5A5A",
"y  c gray39",
"u  c #6B6B6B",
"i  c #747474",
"p  c #7A7A7A",
"a  c #D0001E",
"s  c #C4052B",
"d  c #C40A2D",
"f  c #C60125",
"g  c #D90425",
"h  c #C00731",
"j  c #C90A34",
"k  c #CA0E39",
"l  c #C80732",
"z  c #C71234",
"x  c #CB133B",
"c  c #CA1C3E",
"v  c #C31C3E",
"b  c #D71737",
"n  c #DC1635",
"m  c #D61837",
"M  c #D81738",
"N  c #D1193A",
"B  c #E41633",
"V  c #BF1C40",
"C  c #B31F44",
"Z  c #9D244D",
"A  c #862956",
"S  c #882955",
"D  c #942650",
"F  c #A8234A",
"G  c #CC1C43",
"H  c #CF1F48",
"J  c #CD1741",
"K  c #D71E40",
"L  c #CD2246",
"P  c #CF264B",
"I  c #CF284D",
"U  c #D0274C",
"Y  c #D1294E",
"T  c #D72144",
"R  c #D43B5E",
"E  c #EA445C",
"W  c #DA5974",
"Q  c #0F3F80",
"!  c #034385",
"~  c #0C4182",
"^  c #004488",
"/  c #124281",
"(  c #194684",
")  c #1B4985",
"_  c #1F4D88",
"`  c #224D89",
"'  c #214B87",
"]  c #26538C",
"[  c #2B568E",
"{  c #2D588E",
"}  c #2F5990",
"|  c #325B92",
" . c #37679C",
".. c #4B6C9D",
"X. c #406496",
"o. c #5071A0",
"O. c #5E7CA7",
"+. c #DF758B",
"@. c #D37D94",
"#. c #E0778E",
"$. c #6682AB",
"%. c #6E89B0",
"&. c #748EB3",
"*. c #6A94BA",
"=. c #838383",
"-. c #8A8A8A",
";. c #939393",
":. c #9A9A9A",
">. c #8F80A2",
",. c #9880A1",
"<. c #8299BA",
"1. c #A5A5A5",
"2. c #ABABAB",
"3. c gray71",
"4. c #BCBCBC",
"5. c #E48B9E",
"6. c #E793A5",
"7. c #E797A9",
"8. c #FE9EA6",
"9. c #ECAAB9",
"0. c #8DA2C1",
"q. c #90A5C2",
"w. c #A4B6CE",
"e. c #AEBCD2",
"r. c #B2BFD5",
"t. c #EDB6C1",
"y. c #EFBDC8",
"u. c #B4CEE2",
"i. c #C2C2C2",
"p. c #CCCCCC",
"a. c #D3D3D3",
"s. c gainsboro",
"d. c #EFC1C9",
"f. c #F1C4CC",
"g. c #F2CAD3",
"h. c #F5D6DC",
"j. c #F5D9DE",
"k. c #C9D3E1",
"l. c #D5DDE9",
"z. c #F6DAE0",
"x. c #DBE2EB",
"c. c #E6E6E6",
"v. c #EBEBEB",
"b. c #F8E1E5",
"n. c #EBEEF3",
"m. c #E7FEFF",
"M. c #F6F6F6",
"N. c #FCF4F5",
"B. c #FEFEFE",
/* pixels */
"                                                                                                                                ",
"                                                                                                                                ",
"                                                                                                                                ",
"                                                                                                                                ",
"                                                                                                                                ",
"                                                                                                                                ",
"                                                                                                                                ",
"                                                                                                                                ",
"  a.c.B.X . . u B.X . 1.M.v.c.c.v.c.c.v.v.c.v.c.c.v.c.v.c.v.c.v.v.c.v.c.v.c.c.v.v.c.v.c.v.c.c.v.c.v.v.s.+ . a.s.. . . a.v.a.    ",
"  c.B.y o # # B.-.O @ @ B.B.B.M.M.M.M.M.M.M.M.M.M.M.M.M.M.M.M.M.M.M.M.M.M.M.M.M.M.M.M.M.M.M.M.M.M.B.B.=.O @ # B.;.+ @ X B.v.2.  ",
"  B.a.w p t B.M.t u t B.v.e a.B.B.B.B.B.B.B.B.B.B.B.B.B.B.B.B.B.B.B.B.B.B.B.B.B.B.B.B.B.B.B.B.B.B.u :.B.=.u y 1.B.p i y u B.3.  ",
"  B.o O . =.B.o X . -.B.o X . 2.B.B.B.B.B.B.B.B.B.B.B.B.B.B.B.B.B.B.B.B.B.B.B.B.B.B.B.B.B.B.B.B.. X . c.M.. X . c.M.. o . M.i.  ",
"  i . . O B.p . X + B.i . X @ B.B.B.B.B.B.B.B.B.B.B.B.B.B.B.B.B.B.B.B.B.B.B.B.B.B.B.B.B.B.B.B.B.;.. X o B.:.. X o B.=.+ B.B.i.  ",
"  . X . B.v.. o . B.v.. o . M.B.B.B.B.B.B.B.B.B.B.B.B.B.B.B.B.B.B.B.B.B.B.B.B.B.B.B.B.B.B.B.B.B.B.@ X . i B.@ X . i B.B.a.. $   ",
"  X . -.B.o X . ;.B.o o . ;.B.B.B.B.B.B.B.B.B.B.B.B.B.B.B.B.B.B.B.B.B.B.B.B.B.B.B.B.B.B.B.B.B.B.B.M.. o . c.B.. o . c.M.. . .   ",
"  . O B.p . X + B.i . X @ B.B.B.B.B.B.B.B.B.B.B.B.B.B.B.b.9.7.5.6.9.g.B.B.B.B.B.B.B.B.B.B.B.B.B.B.B.:.. X X B.:.. X o B.;.. X   ",
"  . M.c.. X . B.c.. o . M.B.B.B.B.B.B.B.B.B.B.B.B.y.W x k J J H J J J l R 6.B.B.B.B.B.B.B.B.B.B.B.B.B.# . $ B.B.@ X . i B.O .   ",
"  =.B.o X . ;.B.o o . :.B.B.B.B.B.B.B.B.B.B.B.t.H x H P I I U U Y U P Y L J j #.B.B.B.B.B.B.B.B.B.B.B.v.;.B.4.a.B.. X . s.M..   ",
"  B.u . X + B.i . X # B.B.B.B.B.B.B.B.B.B.B.R x U Y Y Y Y Y Y Y Y Y Y Y Y Y Y G x g.B.B.B.B.B.B.B.B.B.B.B.t . X B.:.. X X B.=.  ",
"  s.. X . B.v.. o . M.B.B.B.B.B.B.B.B.B.b.k H Y Y Y Y Y Y Y U U U Y Y Y Y Y Y Y U j 5.B.B.B.B.B.B.B.B.B.B.@ X . u B.+ X . y c.  ",
"  o X . -.B.o X . ;.B.B.B.B.B.B.B.B.B.j.l L Y I I I I P I P I P I I I I U U P I Y U j +.B.B.B.B.B.B.B.B.B.B.. o . c.B.. X . ;.  ",
"  . . + B.i X X @ B.B.B.B.B.B.B.B.B.N.j P Y Y U U U U U U U U U U U U U P U U U U U I j 6.B.B.B.B.B.B.B.B.B.:.. X o B.;.. . e   ",
"  B.# M.c.. X . M.B.B.B.B.B.B.B.B.B.L L U P P U I P U Y U P U U I I U U U U P P L L P P h j.B.B.B.B.B.B.B.B.B.# X . i B.$ p.a.  ",
"  B.B.B.o . . ;.B.B.B.B.B.B.B.B.B.@.x P L I P P I P P P I P P P L L G G v c c c c c x c z z B.B.B.B.B.B.B.B.B.M.. X . v.B.B.i.  ",
"  B.M.B.B.r O B.B.B.B.B.B.B.B.B.m.h I I P P P P U P P L L L c v c c c c c c c c c c G c c d 5.B.B.B.B.B.B.B.B.B.-.. c.B.M.M.i.  ",
"  M.M.B.B.B.B.B.B.B.B.B.B.B.B.B.,.M P P U P U L L L c c c c c c c c c c c c c c c c c c c c d B.B.B.B.B.B.B.B.B.B.B.B.B.B.M.i.  ",
"  M.M.B.B.B.B.B.B.B.B.B.B.B.B.B.4 T P L L L G c c c c c c c c c c G c c c c c c c c c c c c s t.B.B.B.B.B.B.B.B.B.B.B.B.M.M.i.  ",
"  B.M.B.B.B.B.B.B.B.B.B.B.B.B.u.5 T L L c c v c c c c c c c c c c c c c c m b N N c c c c c z W B.B.B.B.B.B.B.B.B.B.B.B.B.M.i.  ",
"  B.M.B.B.B.B.B.B.B.B.B.B.B.B.*.9 K c v c c c G c c c c c L c c c c b M D 9 7 9 A N n c c c c z B.B.B.B.B.B.B.B.B.B.B.B.M.M.i.  ",
"  M.M.B.B.B.B.B.B.B.B.B.B.B.B. .1 n c c c c c c c c c c c c c c c n 9 ^ ! ! ~ ! ! ^ 7 m c c c f B.B.B.B.B.B.B.B.B.B.B.B.B.M.i.  ",
"  B.M.B.B.B.B.B.B.B.B.B.B.B.B.q Q b c c c c c c c c c c c c c c m , ! / / / / / / / ! ! v N c s z.B.B.B.B.B.B.B.B.B.B.B.M.M.i.  ",
"  M.M.B.B.B.B.B.B.B.B.B.B.B.B.; ! 6 b c c c c c c c c c c c c n q ~ / / Q Q / / / q q q ! c c s f.B.B.B.B.B.B.B.B.B.B.B.B.M.i.  ",
"  M.M.B.B.B.B.B.B.B.B.B.B.B.B.- > ^ v N c c c c L c c c c c B 7 ! / / / Q Q / / Q / / / / 2 n s d.B.B.B.B.B.B.B.B.B.B.B.B.M.i.  ",
"  B.M.B.B.B.B.B.B.B.B.B.B.B.B., Q Q ! c m c c c c c c c c B 0 ^ / / / Q / / / Q / / / Q / ! F f h.B.B.B.B.B.B.B.B.B.B.B.M.M.i.  ",
"  B.M.B.B.B.B.B.B.B.B.B.B.B.B.| > / ~ ^ A B m c c N N n c 3 ^ q / / / / / Q / / / Q / Q Q ~ 7 g N.B.B.B.B.B.B.B.B.B.B.B.M.M.i.  ",
"  M.M.B.B.B.B.B.B.B.B.B.B.B.B.$.: / / / ^ / 9 Z C F S 1 ^ q / / / Q Q / Q Q ( Q / Q / / / / < g B.B.B.B.B.B.B.B.B.B.B.B.B.M.i.  ",
"  M.M.B.B.B.B.B.B.B.B.B.B.B.B.e.* / Q / / ~ ~ ! ^ ^ ! q / / / q / Q / Q ( ( Q Q Q / / / / Q > E B.B.B.B.B.B.B.B.B.B.B.B.M.M.i.  ",
"  B.M.B.B.B.B.B.B.B.B.B.B.B.B.B.& / / / Q / / / q q q / / / / ~ / / / / Q Q ( Q / / Q / / / = 8.B.B.B.B.B.B.B.B.B.B.B.B.B.M.i.  ",
"  M.M.B.B.B.B.B.B.B.B.B.B.B.B.B...> Q / / / Q / / / / / ~ q q ( Q ( / / / < Q Q / Q / / / Q % B.B.B.B.B.B.B.B.B.B.B.B.B.M.M.i.  ",
"  B.M.B.B.=.w B.B.B.B.B.B.B.B.B.c.& Q Q , / Q / , q ~ q q ~ q q Q Q Q Q Q ( Q Q / Q Q q ~ ; >.B.B.B.B.B.B.B.B.B.4.@ B.B.B.M.i.  ",
"  B.B.B.+ . . 4.B.B.B.B.B.B.B.B.B...: / / ( / / / / / / / / / ~ ( / / / / / ( q / ~ ( q / * B.B.B.B.B.B.B.B.B.B.. . . v.B.B.i.  ",
"  B.i B.3.. X . B.B.B.B.B.B.B.B.B.B.- / ( ( ( ( ( ( ( ( ( ) ( ( ( ( / ) ) / ( ( ( ( ( ) * r.B.B.B.B.B.B.B.B.B.r . X w B.i M.p.  ",
"  @ . e B.e X X r B.B.B.B.B.B.B.B.B.k.* ) _ ) ) ) ) ) ) ) ) ) _ ) ) _ ) ) ) ) ) ) ) ) q O.B.B.B.B.B.B.B.B.B.i.. o X M.4.. . p   ",
"  o o . 4.B.X O . i.B.B.B.B.B.B.B.B.B.w.; _ _ _ ` ` ` ` _ _ _ _ ` ` ` ` ` ` ` ` _ _ q  .B.B.B.B.B.B.B.B.B.B.X O . 4.B.X O . i   ",
"  4.. O X B.i.X + o B.B.B.B.B.B.B.B.B.B.e.: ] ] ] ] ] ] ] ] ] ] ] ] ] ] ] ] ] ] ] q o.B.B.B.B.B.B.B.B.B.B.t O O r B.t o o e c.  ",
"  B.t O O t B.t + O t B.B.B.B.B.B.B.B.B.B.x._ ) { { { { { { { { { { { { { { { ] q q.B.B.B.B.B.B.B.B.B.B.B.@ o o B.i.X + o B.2.  ",
"  i.B.O @ o i.B.O @ o i.B.B.B.B.B.B.B.B.B.B.B.<.( ] } | | | | | | | | | | [ ( ..n.B.B.B.B.B.B.B.B.B.B.M.a.B.-.3.B.O @ o 4.B.o   ",
"  + B.i.O @ O B.i.+ # @ B.B.B.B.B.B.B.B.B.B.B.B.B.q.| ` } } | | | } { ] ] %.l.B.B.B.B.B.B.B.B.B.B.B.B.u o -.B.B.i O @ y B.y +   ",
"  # y B.y t B.B.B.u $ # u B.B.B.B.B.B.B.B.B.B.B.B.B.B.n.r.0.&.%.&.<.w.l.B.B.B.B.B.B.B.B.B.B.B.B.B.B.p.+ $ + M.B.B.:.+ B.i.+ #   ",
"  e @ i.B.B.a.+ i.B.# w @ i.B.B.B.B.B.B.B.B.B.B.B.B.B.B.B.B.B.B.B.B.B.B.B.B.B.B.B.B.B.B.B.B.B.B.B.B.# w @ i.B.@ ;.B.B.B.+ w #   ",
"  w e # B.s.+ e $ B.p.# e $ B.B.B.B.B.B.B.B.B.B.B.B.B.B.B.B.B.B.B.B.B.B.B.B.B.B.B.B.B.B.B.B.B.B.B.i w w i B.p w # p B.B.1.# r   ",
"  =.e e i B.p e e p B.p e e p B.B.B.B.B.B.B.B.B.B.B.B.B.B.B.B.B.B.B.B.B.B.B.B.B.B.B.B.B.B.B.B.B.a.$ t w B.a.$ e w B.i.-.B.v.i.  ",
"  B.e t $ p.B.e t w a.B.e t $ i.B.B.B.B.B.B.B.B.B.B.B.B.B.B.B.B.B.B.B.B.B.B.B.B.B.B.B.B.B.B.B.B.$ t w p.B.e t w p.B.w w e B.p.  ",
"  B.p.e t r B.a.e t r B.p.w 1.B.B.B.B.B.B.B.B.B.B.B.B.B.B.B.B.B.B.B.B.B.B.B.B.B.B.B.B.B.B.B.B.B.s.e =.B.=.t t =.B.=.t t p B.p.  ",
"  B.B.-.t y =.B.-.y t =.B.c.B.M.M.B.B.M.M.B.M.B.M.M.B.M.M.M.B.M.B.M.M.B.M.B.B.M.B.M.M.B.M.B.M.M.B.M.B.i.r y t B.a.r y t B.B.4.  ",
"  4.B.B.i i y a.B.i i 3.B.B.B.B.B.B.B.B.B.B.B.B.B.B.B.B.B.B.B.B.B.B.B.B.B.B.B.B.B.B.B.B.B.B.B.B.B.B.B.c.p u s.B.u i u c.B.M.    ",
"    O # + o O o # + + $ @ @ @ @ @ @ @ @ @ @ @ @ @ @ @ @ # @ @ @ @ @ @ @ @ @ @ @ @ @ @ @ @ @ # @ @ @ @ # # o # + o o O # @ .     ",
"                                                                                                                                ",
"                                                                                                                                ",
"                                                                                                                                ",
"                                                                                                                                ",
"                                                                                                                                ",
"                                                                                                                                ",
"                                                                                                                                "
};
