/* XPM */
static char *result[] = {
/* columns rows colors chars-per-pixel */
"32 32 92 1 ",
"  c #044F02",
". c #114E02",
"X c #015505",
"o c #0C5502",
"O c #025904",
"+ c #00560F",
"@ c #005B14",
"# c #4D4944",
"$ c #524E47",
"% c #514E49",
"& c #55524C",
"* c #59554E",
"= c #575553",
"- c #5B5651",
"; c #5D5A53",
": c #5F5D58",
"> c #615C56",
", c #635E59",
"< c #685D5A",
"1 c #66625B",
"2 c #6A645D",
"3 c #6C685E",
"4 c #70695E",
"5 c #6B6661",
"6 c #6E6A64",
"7 c #716C66",
"8 c #736E69",
"9 c #767166",
"0 c #76716B",
"q c #7A746D",
"w c #7D796F",
"e c #7B7671",
"r c #7E7973",
"t c #827C75",
"y c #837E79",
"u c #887E7A",
"i c #019B05",
"p c #0C9A03",
"a c #00910F",
"s c #149B03",
"d c #1C9803",
"f c #009B13",
"g c #00931C",
"h c #13A103",
"j c #23A003",
"k c #02CC07",
"l c #01CF0B",
"z c #01CF14",
"x c #01D21C",
"c c #23CB04",
"v c #2DD005",
"b c #01CF28",
"n c #01D02B",
"m c #01D13E",
"M c #6AD43D",
"N c #36D549",
"B c #35DB57",
"V c #4CD646",
"C c #40D84D",
"Z c #858077",
"A c #888176",
"S c #86817A",
"D c #8A847C",
"F c #8E887E",
"G c #57F897",
"H c #6CF28D",
"J c #77F28B",
"K c #6BF899",
"L c #76F396",
"P c #73F894",
"I c #73F39A",
"U c #6EF8A0",
"Y c #8B8681",
"T c #8E8981",
"R c #908684",
"E c #918B83",
"W c #948E89",
"Q c #95918A",
"! c #9B958D",
"~ c #9E988E",
"^ c #A29B92",
"/ c #A8A196",
"( c #AAA69C",
") c #ACAAA3",
"_ c #B2AEAA",
"` c #83F39A",
"' c #97F8AE",
"] c #8DF9B6",
"[ c #A5F6A6",
"{ c #A3F7B0",
"} c #ECFFF6",
"| c #EBFFF9",
/* pixels */
"u32>527566ree5608rYrYyeeeee0588t",
"tt7286t050q0e8erry85Yyee08e56588",
"t75>500710e686e81=|I:88eee55557t",
"q7t<<0775*=865080;lOWe85586e0<5u",
"etq55te7:}`*09q6eeyQeeY07477t7tR",
"7807tut>|{xhQ5er00686er8507760uu",
"<8qtt0u>UvBOq561,52150r,2007<7tt",
"18eqewty/j@A25515715e8,|L$77>3t8",
"1;47286q6Q027297rqq70=}]zdR33667",
">#**>88<5q7eq09et067q&PxCXE,67><",
"<-67qre882we800w:-0:5q~dXy766855",
"76eqrDEy58tw7r8:}I%10q3tu57526qq",
">:00ett95qrS85-|[ksEre125rt6,560",
"r628888138q86-#KcMO)T0661606110e",
"086-,82---,8qe6TiOFuZ56q5;;;;66Z",
"q6&|I,,-;:5qq506rr1qe5:1331&$err",
"Sq,lO^6550rD37rt553rr111:7;}J&0r",
"q0t^!516etr1|I5qqr6r0*:::8&kXD60",
"70w731qrer3|'nf!rrZS:5r6136FF21q",
"7FA06Z369w2PmV+^6ye80qZ713167110",
"wDttqt20tFZ_po~yYSt6rrtq1031>727",
"rtAtFr26qSrZ)(DTZSrr36e056771w07",
"7tuqeD61AArrSDSASS768q0r6:261386",
"18r99t00rSrrq229Yr177wtr06282;51",
"77737u**qt091}`*r8-66ee-*S70-180",
"r6889>}L#822,bX!t86erY<|H;Sqe6,0",
"w776t&cXE185D^)w808er6|UcgQ80q26",
"6188t1A!68667t90r8ee8;GkN.E0q650",
"69t688q7651erYZSe9q060Ya D671>:1",
"9t0tAtwtyYY5yEtrwtYe558SW26,12>5",
"tttqq60werTYYYYyerQWeet752891tq4",
"u<28258qeeT0eYYrSYrruSu57877<3tq"
};
