/* XPM */
static char *result[] = {
/* columns rows colors chars-per-pixel */
"32 32 79 1 ",
"  c #47433D",
". c #0E0E67",
"X c #001165",
"o c #051672",
"O c #151177",
"+ c #13197A",
"@ c #1A1C7A",
"# c #152073",
"$ c #13227E",
"% c #4E4A45",
"& c #514D46",
"* c #56524C",
"= c #59554E",
"- c #5B5651",
"; c #5E5B54",
": c #615C56",
"> c #635E59",
", c #685D5A",
"< c #66625B",
"1 c #6A645D",
"2 c #6C685E",
"3 c #70695E",
"4 c #676360",
"5 c #6C6661",
"6 c #6E6963",
"7 c #726C66",
"8 c #736E69",
"9 c #747066",
"0 c #75716B",
"q c #7A746D",
"w c #7D796F",
"e c #757470",
"r c #7B7671",
"t c #7E7973",
"y c #827D75",
"u c #827E79",
"i c #868077",
"p c #86817A",
"a c #8A847C",
"s c #8E887F",
"d c #142086",
"f c #162291",
"g c #1F2E9C",
"h c #232E8C",
"j c #212C9E",
"k c #28299F",
"l c #233196",
"z c #1F29A6",
"x c #222DA0",
"c c #2C2EA5",
"v c #2C3BAF",
"b c #3333A0",
"n c #333DAE",
"m c #2435B0",
"M c #2D37B9",
"N c #2739B8",
"B c #3033B9",
"V c #3C50B5",
"C c #3447C1",
"Z c #3841C5",
"A c #394DC2",
"S c #394ECC",
"D c #3B51DA",
"F c #414CC5",
"G c #5D5AC5",
"H c #435DD0",
"J c #4962CF",
"K c #5C64CB",
"L c #454EE3",
"P c #4D64E2",
"I c #5570E3",
"U c #8B8682",
"Y c #8D8882",
"T c #928C84",
"R c #938F89",
"E c #969186",
"W c #96918A",
"Q c #99958D",
"! c #9B9891",
/* pixels */
"y31:517566tre6688uutUuerrtrq588y",
"yy7186y068eer8etuuYpUtrre8r55588",
"y85:5807<0e78*:-4846r88rrq55557y",
"q7y,,0785988-%GKSet48r86587qq,3u",
"tyt56yr7qi09:xFSMB48eeu07577y7yY",
"7888yuyy1709-gHFSSg87ry8507750uu",
",8qwy05:&=85 FHDAPlq48utyqq7,7uy",
"<8qqt:<MNSM<1MSBLMdrr8rty757:3y0",
",,77,-NHSHS+71XMfOTp08e07,551777",
"- ==:-AHHHAxT09TWpu8r56=%**,76:,",
"<-67q<NFDAx.p00rr90;6e;=llll6855",
"66qqq7dNf+o+p>-;-<*<00%lAHFvl6qq",
"<;00<<++ooo!5*NPPSzdi0*hHHJDvv68",
"t6<-=gfkxoY6*NHPSNNzd96#zNvv+qUr",
"096-ozmgMx0-NPHSHSzzdq6e@d.d6i7y",
"q67-fxMBCxt:NHHHPAxdow<<2q9qwttt",
"iwq:VvjSFxRazNDDAxdoW0<>>60e269u",
"q0t,VANSfEEyrx$f+ooRa=<;>8666678",
"7qw8$HAfxEasyUQaTWQ!<5y6>26622<e",
"7aiq7xjjiTuyyuyq7ue700i7<6>66<<9",
"wpiwqyqpQapTyyqyapt=<tie<061:727",
"tyiiay17,2110ypUpp1:vnq76667<w08",
"7yyywp2&2oHHIApypp=vvAzt2;16<576",
"<8t98y:;ovFAvvQqUy%vSxcq-=18<;5<",
"77727y=ovDDvvdT0t8-xnf9ZMMD0-<80",
"t6880y9oHPSNgjT8t96tj$bLDNPHt6,0",
"w767y397xNNfdR!w000rtpJPDvPvpq<6",
"6<88y,396++dyEq8t90r7;vLDPvgY660",
"39y687q885qYYUipr9q960zMvn@y<;;<",
"7yqypyqyupa6pTurtyUr556gf@y911:6",
"yyyrr6qwryYUUUUieuWRrry6yqp01yw2",
"s,,8157qreY0rYUtpYtrupp67868,1yq"
};
