/* XPM */
static char *result[] = {
/* columns rows colors chars-per-pixel */
"32 32 82 1 ",
"  c #020104",
". c #05030B",
"X c #08040E",
"o c #070511",
"O c #0A0614",
"+ c #0B0816",
"@ c #0C0619",
"# c #0E091B",
"$ c #110C16",
"% c #12071D",
"& c #120A1D",
"* c #0F0720",
"= c #0E0A22",
"- c #140B23",
"; c #180D26",
": c #160E2A",
"> c #190E2A",
", c #151025",
"< c #1D1424",
"1 c #17112D",
"2 c #1A112D",
"3 c #170E32",
"4 c #1A0E31",
"5 c #171031",
"6 c #1C1333",
"7 c #1E143A",
"8 c #1F1839",
"9 c #221A2F",
"0 c #221536",
"q c #23163C",
"w c #29163C",
"e c #24183D",
"r c #29193C",
"t c #1E1440",
"y c #241642",
"u c #281743",
"i c #251942",
"p c #291A45",
"a c #251548",
"s c #2B174A",
"d c #261A4A",
"f c #2C1C4B",
"g c #311D4D",
"h c #2A1751",
"j c #2D1C53",
"k c #2E1D59",
"l c #321D53",
"z c #331E5A",
"x c #3C1E5F",
"c c #2D224D",
"v c #34224C",
"b c #2F2052",
"n c #332154",
"m c #392357",
"M c #35225A",
"N c #3A245C",
"B c #39295E",
"V c #351E60",
"C c #352263",
"Z c #3B2463",
"A c #3D2964",
"S c #3C246A",
"D c #3D2969",
"F c #3E2470",
"G c #402762",
"H c #402A67",
"J c #41246D",
"K c #422B6B",
"L c #44306F",
"P c #4A336C",
"I c #432A73",
"U c #492E76",
"Y c #442A79",
"T c #4D3276",
"R c #503676",
"E c #51337D",
"W c #4F3487",
"Q c #513482",
"! c #5A3B85",
"~ c #54318C",
"^ c #5B3B8F",
"/ c #552F92",
/* pixels */
"g+%0qp70o+.6iNubd8XX-O85i-,-pger",
"y>O&&++-+#6eifefn2&@+% +#@0Znfjg",
"++@&7O@OO&6ceLddy&6&+ .OwZHRDnff",
"O+%giw@%+e68ienr;-de@. 5ffKApgp&",
" -0NBEK&&:w68qq6>B,2q@ -,NKprN2@",
"%0lZE!E0-w-q6k6O6Nf66X -0fme6&+O",
":pKTKEK0;+.O-#@*pfM2, X++@22&X: ",
":dHMEGg>-qXoO*7:w0=7> .OX@26Z2@+",
":nMrZfe-5>X.o@+@. .=..X26#;pldOO",
"6fd>ffq-2.-&O. @ .+61-@226+&11X ",
",ieddp6@oX7y4y4= .4kZM6ie,-X&-@ ",
"+&d08,-%+4NzVs3#+6dkCB>c5+v-%2-O",
"-+1B-.++&FY^/Is3=.:yd&#6::6y&-+o",
"-&O:.+&:Iy/~Yswj= @+,@O-.kSJh+oo",
" :..:&-qSgKSuuz4-  .:o  .SYYM@..",
"-:-yvp22sssynq7#=O-66#.+#=60O+.@",
"62zNDEI%@#+@0--++f-22O6i2&%&++26",
"c0PGID0.+:@=OO%;>jw2680MpiO@06#8",
"fjnfnl@@-:7qguX+<gNf>0enpp5@qi8e",
"np66;9+oO7hp84+@2rNml&202&+@cfnd",
"0i-+.O&#O 4qk5#@iiMgi82X=@.o,dpi",
"o=&X&-;0+>=63=+.2uk0mzq0O:+oO+1+",
"@:-2267,0+.5*o.=6fgprKpN#+#:-o:#",
"-6ypdi66=.+. O :8zJKjNp&#4pnNMP7",
"->gDKf01>%  o  ->2DnLi2&:uKQ7If;",
"0:rnmwp- Oo7att@&;qr2>+ 6pUWs0*@",
"N@nH$&5X #tySzy7i-5;&..-2FIIhz-g",
"M86<+O+6o6tjkhVhuO-:r6v+->Skw;yJ",
"jzr&%>-. 5kChkkM6-+5edi2.+qy@sKJ",
"Cl$nNjle.O.-@7zk0  :4anp#+-%4AMx",
"w-2unGe67O++.@f&@ .@;szw00O;-uw2",
";;eHfci2-=o@6lnjq@o+>s7ywq>#%&%+"
};
