/* XPM */
static char *result[] = {
/* columns rows colors chars-per-pixel */
"32 32 166 2 ",
"   c #3D0202",
".  c #4E0101",
"X  c #560101",
"o  c #5D0202",
"O  c #660202",
"+  c #6B0202",
"@  c #690C0B",
"#  c #740202",
"$  c #7C0303",
"%  c #730B0B",
"&  c #7C0F0F",
"*  c #6D1513",
"=  c #7D1614",
"-  c #7D1C1A",
";  c #782926",
":  c #752E2B",
">  c #6A312E",
",  c #74312E",
"<  c #7B302D",
"1  c #6E3936",
"2  c #663D38",
"3  c #763C36",
"4  c #7E3933",
"5  c #703F3C",
"6  c #7C3D3A",
"7  c #59423E",
"8  c #73423E",
"9  c #7F423E",
"0  c #494540",
"q  c #4E4943",
"w  c #534D46",
"e  c #554F4B",
"r  c #56534C",
"t  c #5A544E",
"y  c #5C5651",
"u  c #5E5A54",
"i  c #6C4740",
"p  c #684E45",
"a  c #654E48",
"s  c #6F4E48",
"d  c #764641",
"f  c #7B4C47",
"g  c #744D48",
"h  c #61544E",
"j  c #6C514B",
"k  c #71524D",
"l  c #7A524D",
"z  c #645651",
"x  c #6B5651",
"c  c #625B55",
"v  c #695D56",
"b  c #635E59",
"n  c #6A5E59",
"m  c #745651",
"M  c #7C5652",
"N  c #725D56",
"B  c #7A5852",
"V  c #725E58",
"C  c #646156",
"Z  c #66625B",
"A  c #6A645D",
"S  c #6B685E",
"D  c #73635D",
"F  c #7C645F",
"G  c #70695E",
"H  c #676460",
"J  c #6B6661",
"K  c #6E6963",
"L  c #6F6D69",
"P  c #736762",
"I  c #7D6662",
"U  c #716C65",
"Y  c #796C66",
"T  c #736E69",
"R  c #786F69",
"E  c #76726B",
"W  c #7A746D",
"Q  c #7E796F",
"!  c #7B7671",
"~  c #7E7973",
"^  c #830302",
"/  c #8B0303",
"(  c #880708",
")  c #830B0A",
"_  c #930404",
"`  c #9B0404",
"'  c #920807",
"]  c #9C0806",
"[  c #9B0B0C",
"{  c #851513",
"}  c #8A1614",
"|  c #831D1B",
" . c #951513",
".. c #991614",
"X. c #921816",
"o. c #911B19",
"O. c #A30303",
"+. c #AD0504",
"@. c #AD0B07",
"#. c #A80708",
"$. c #A30C09",
"%. c #AE0B0C",
"&. c #B00707",
"*. c #B90606",
"=. c #B70808",
"-. c #B80A09",
";. c #A91514",
":. c #BB1111",
">. c #862523",
",. c #8E2623",
"<. c #802C27",
"1. c #8E2C29",
"2. c #992625",
"3. c #84322F",
"4. c #91322F",
"5. c #863635",
"6. c #853D39",
"7. c #923D39",
"8. c #9A3E3A",
"9. c #AC2926",
"0. c #B62926",
"q. c #B82927",
"w. c #A8322F",
"e. c #A33C38",
"r. c #C40303",
"t. c #C10807",
"y. c #C60709",
"u. c #CD0B0B",
"i. c #C21210",
"p. c #83423D",
"a. c #864541",
"s. c #854946",
"d. c #8C4A46",
"f. c #854D48",
"g. c #894C48",
"h. c #84514C",
"j. c #845551",
"k. c #895651",
"l. c #845C57",
"z. c #945650",
"x. c #A14743",
"c. c #81635D",
"v. c #826C65",
"b. c #886964",
"n. c #806E69",
"m. c #906660",
"M. c #906E6A",
"N. c #84736E",
"B. c #98706A",
"V. c #807672",
"C. c #827C75",
"Z. c #8A7972",
"A. c #837E7A",
"S. c #967E77",
"D. c #868077",
"F. c #86817A",
"G. c #8A847C",
"H. c #92847C",
"J. c #8B8681",
"K. c #8D8982",
"L. c #928C85",
"P. c #958F89",
"I. c #96918A",
"U. c #9A938B",
"Y. c #9C9893",
"T. c #A29C95",
/* pixels */
"C.G A b b c A J K K R L J J K R T A.A.~ J.A.! ! ! ~ ! E L L Y V.",
"F.N.U Z P m T R K Z u b b H ! ~ ~ A.J.F.J.~ ! ! E T ! J J J R R ",
"W T J y H P c.T u u v d a.k ! K H L H K ! T L ! E T J J J A L ! ",
"~ U R c u R T W u h 5.@.=.e.! T E E ~ H T ! J e e u u ! R J P A.",
"C.~ E B P Z.~ T S j.' :.+.4.C.U ! ! H L ! E K b h a t Z ~ T ! L.",
"U U E U C.A.C.W b i ^ / # > K.C.E E J R K H H x ] ^ | z U R A.G.",
"Z T W ~ ~ W C.U b h , + @ I C.Z u K H b u u n &.t.O.$ 5 Z U C.~ ",
"Z T W W ~ b Z J Z c h f Y D.L C K L H H Z z = $ #.^ + Y U A C.E ",
"b c P K u y h f.g z 0 H Q K R U C.W W T b 6.( + # +   W U U U U ",
"c q t t r z ` ' _ { t A W E K E ~ L L U P 8 _ # O X O E A b u b ",
"Z y K T P l / *.%.$ * n L E U Y Q L E u A x # X . + N.U y y u J ",
"L K ! W W D + ] ) & # - P ~ U n.U Q J Z E E j , m V.E y d 8.N W ",
"u u W E Q K ; O ^ + + $ C.J E J t Z u c W W A K ~ C.S f i.r.w.R ",
"~ L Z U K K h O # + $ ` Z.y b Z r t r P E P K K b y x ;.;.` ) J.",
"E L K R W G c 7 % O + M.U.~ u t p.9.0.x.B v U W J q 4.=.+._ | Y.",
"W J L L C.R l y y D N.L.C.J u s.t.u.' _ o.V b Z H t <.+ / ] z.I.",
"C.W W W C.W K K H S J E L J.A e.^ ` ` _ - W A Z b Z 8 ` ^ } G.L.",
"W R ~ Q E K b K Z A Z N b Q ~ a.O./ $ # f.u y y b L C s.p.N.G.R ",
"U W Q U A Z W A Z A 4 $ : Y C.D h.l.c.m.v b Z t r S K K W W J W ",
"U G.G.W P D.C t l } % O + k C.Q T L.A.Z V 6 p.j w y Z K K Z Z U ",
"W G.C.Q W D.y c ,.*.( ^ + c.G.C.G.G.~ r 3.[ _ # 1 c Z Z c U K U ",
"C.C.D.D.G.~ t d &.] [ $ + I.L.C.W C.~ Z ^ O.@.$.#., v U Z W R R ",
"L Q C.W W G.b 3 _ ^ o o b.T.R K K U J t ) +.@.$.$ # s L Z K L S ",
"Z b Z u u A P A m F Z.H.I.G.S l d.N w b 6.` $./ $ $ h.~ A y K Z ",
"b t t p j J c U W J.C.Q D.U N q.&. .2 b b 4./ ` $ a.G.C.y b E T ",
"Z j 9.-.&...h.K Z T J A W K g.r.y.O.X.v.! Z.l.M f.G.P.~ ~ K b E ",
"C < ^ ` $.^ | R K A R H G.E k.O.&.+.^ B.A.J.Y.Y.U P E T E Q A K ",
"y >./ / # O 4 H.J T K U U Q D 4.` ^ 2.L.E E F.J.U I U T W K J E ",
"S B 1.( } 9 H.F.T H b E ~ J.D.N.d.7.S.G.L E K Z Z A U K b u u Z ",
"Y V.W L.T.I.G.A.A.J.J.T F.K.~ ~ ~ G.Y.~ H J L Z U A U b Z A b K ",
"C.C.C.W W U W ~ ! ~ K.J.K.J.K.A.! ~ I.I.! ! ~ L K A E R Z C.W K ",
"H.A A T J J U W E ! K.T ! J.J.~ F.K.~ ~ F.F.F.K K R U U A K W W "
};
