/* XPM */
static char *_e256c0a9f204dc7c920cfd33e20ddb3Y512vutf2D1lJO1w[] = {
/* columns rows colors chars-per-pixel */
"64 64 169 2 ",
"   c #020202",
".  c #0C0C0C",
"X  c #131313",
"o  c #1B1B1B",
"O  c #001E2A",
"+  c #00212D",
"@  c #012534",
"#  c #062937",
"$  c #002738",
"%  c #012B3B",
"&  c #092C39",
"*  c #09313F",
"=  c #232323",
"-  c #2B2B2B",
";  c #323232",
":  c #002F42",
">  c #023245",
",  c #093443",
"<  c #0D3847",
"1  c #00364B",
"2  c #04394D",
"3  c #0D384A",
"4  c #123542",
"5  c #173844",
"6  c #103D4B",
"7  c #013C53",
"8  c #093D50",
"9  c #003F58",
"0  c #17414E",
"q  c #094055",
"w  c #02425C",
"e  c #0E455A",
"r  c #0F495F",
"t  c #144556",
"y  c #194654",
"u  c #13485A",
"i  c #1B4B5C",
"p  c #264A55",
"a  c #264D58",
"s  c #325157",
"d  c #35565E",
"f  c #004661",
"g  c #014965",
"h  c #024E6B",
"j  c #084C68",
"k  c #134D61",
"l  c #03516E",
"z  c #0C516A",
"x  c #13546C",
"c  c #19566C",
"v  c #1B586D",
"b  c #035271",
"n  c #0A5571",
"m  c #0C5973",
"M  c #135C74",
"N  c #1A5E75",
"B  c #145C78",
"V  c #195F78",
"C  c #225363",
"Z  c #2B5560",
"A  c #235A6B",
"S  c #295D6C",
"D  c #3A5B62",
"F  c #166177",
"G  c #1D6175",
"H  c #16617A",
"J  c #1B6479",
"K  c #3C656D",
"L  c #276071",
"P  c #2C6675",
"I  c #2F6875",
"U  c #206578",
"Y  c #246A7C",
"T  c #2C6D7C",
"R  c #326372",
"E  c #3C6C75",
"W  c #2F707D",
"Q  c #35727C",
"!  c #3C747D",
"~  c #436F75",
"^  c #447277",
"/  c #42747B",
"(  c #48787C",
")  c #03658B",
"_  c #116886",
"`  c #146D8C",
"'  c #326E81",
"]  c #2D7280",
"[  c #21748E",
"{  c #27788E",
"}  c #347580",
"|  c #377882",
" . c #3D7C84",
".. c #33788B",
"X. c #2B7A90",
"o. c #427B84",
"O. c #4A7B83",
"+. c #338393",
"@. c #3B8394",
"#. c #3A8897",
"$. c #37899F",
"%. c #2283A1",
"&. c #2789A5",
"*. c #468085",
"=. c #4A8587",
"-. c #418288",
";. c #4C878C",
":. c #548484",
">. c #5E8583",
",. c #558887",
"<. c #56878A",
"1. c #54898A",
"2. c #5D8B8C",
"3. c #408B97",
"4. c #418C9E",
"5. c #4B9097",
"6. c #45929D",
"7. c #51959B",
"8. c #5C9C9D",
"9. c #6D8A85",
"0. c #628C8C",
"q. c #6B8E8D",
"w. c #708E8E",
"e. c #7B8F8D",
"r. c #658D90",
"t. c #6C8F90",
"y. c #708F90",
"u. c #7B9090",
"i. c #549CA3",
"p. c #5E9FA4",
"a. c #629EA0",
"s. c #4DAAB7",
"d. c #6AA1A4",
"f. c #6DA6A8",
"g. c #72A1A4",
"h. c #7BA3A4",
"j. c #78A5AA",
"k. c #6DAFB2",
"l. c #6AB9BC",
"z. c #75BCBC",
"x. c #969797",
"c. c #85A5A5",
"v. c #8CA6A3",
"b. c #87A6A9",
"n. c #8CA9AD",
"m. c #90A6A6",
"M. c #92A9AD",
"N. c #9AABAE",
"B. c #8BBCB5",
"V. c #82BCBB",
"C. c #83C1C5",
"Z. c #8FC4C8",
"A. c #94C4C7",
"S. c #91C4CB",
"D. c #9BC6CB",
"F. c #A6C6C3",
"G. c #A1C7CC",
"H. c #A6C8CC",
"J. c #AAC9CC",
"K. c #B4C9CC",
"L. c #BECDD1",
"P. c #C3CFD3",
"I. c #C8CFD1",
"U. c #CDD0D4",
"Y. c #D2D2D4",
"T. c #D6D3D8",
"R. c #DDD9DC",
"E. c #E1DFE1",
"W. c #E3E0E1",
/* pixels */
"        . o o o o X X X . . . . . X X . X . . . .             - - .           . . . . X . X X . . . . . X X X o o o o .         ",
"  o o - - - - - - ; - ; ; ; ; ; ; ; - - = = = - = - - =     o - ; X     o - - - - = = = - - ; ; ; ; ; ; ; - ; - - - - - - o o   ",
"  X + % # X = % % = X % % $ @ + + + O + @ > 1 1 1 2 > % +   X - ; X   + % 1 1 1 1 1 > + + + + + + + % % $ X o % > = X & $ @ X   ",
". o O r D X = * 4 = X 7 g h j N M t . . 1 X . f ) b f 9 % @   = ; . @ % 7 f b ) g   o > . . t F N j h g 7 o = 4 , = X d r O o . ",
". - O y S . - ~ 0 o . h z B Y :.,.} o o l . o H m l           . X           h m F o X h o o } :.:.U M l h . = 0 K - . S y O - . ",
"  - . . . . -   X o X o X X X . . ,.o.Y [ F 2.0.  . = - ; - X     X - - - = .   0.2.F [ U o.1.. . X X X o X X X   ; . . . . = . ",
". - . - = . ; . o - ; ; ; = = - = = T z.D.L.h.Y o o .     . - o   - X     . = o Y g.L.D.z.W = = - = = ; ; ; - o . ; . = - . -   ",
"  - % i O.X ; h b .   m B J ] J m l b X.Z.Y.=.. = . @ @     ; = X ;     @ %   = . =.U.S.X.l b m J ] J H M   . b h ; X ( i % ;   ",
"  - $ < c   = h _ m G W b.J.G.j.] . X B a.P.o.  o # e q @   - - o =   @ q e @ =   o.L.d.B . X T h.G.H.c.] J m _ l = . c , @ =   ",
"  = . - ; = o o o.m   . J g.n.W o X X X } N.}   . % k 2 @   . o o X   @ 2 k % .   } N.} X X X o ] n.g.Y .   m o.o o = ; - . =   ",
"  =   . X X . . q.  / e.  @.1.X X A  .=   w.@.h   > . .   +         O . X . :   h @.t.  =  .L X . 1. .  e./   q.. . X . . . -   ",
"  = + @ @   . U r.  P :.  @.2.. o S  .=   Y k.b 2 X - o X . +   . O . X o = X 7 b k.Y   =  .S X X 2. .  :.P   r.U .   @ @ + =   ",
"  = $ q > . = T M. .    x #.d.] = o o X h f 7 1   X M z 1 .   . o   . > z M X   2 7 f h X = o = ] d.$.M      .n.I =   > 9 $ =   ",
"  = 1 H c   - I L.d.2.0.g.C.D.i.m X . h 9       X J 6.&.2     o o     7 &.6.J .       7 g . X m i.D.C.d.r.2.d.L.T - . x H > =   ",
". = : @.2.. ; Q U.a.@.=.p.S.T.D.` h f 7 = ; -   X m Y m 7     o o     7 m ] m X   - ; = 7 f h ` D.T.S.a.=.o.a.I.Q ; . >.@.> = . ",
". o & 4.2.. ; M d.U     J +.Z.I.%.b 7 o - .     X l X o = .   X o   . = o X l X     . - o 7 b %.P.Z.+.J     Y d.M ; . 0.4.$ o . ",
". o # $.Y   ; b m . o X   m +.V.n 1 . - m Y m . o o X .       X o       . . = o . n Y m -   1 n V.X.n   X o . b b -   T $.# o . ",
". o @ c J b   n   = } 1.X   N J 1     o n J o .     O @ % % @ . o @ % > @ O     . o J n o     2 ] B   X 1.} = . b . b J v # o . ",
". o @   X W Y M . o T 2.X . P q . = X X   X .   + + $ >.B...% X o $ ..B.>.@ O +   . .   X X = . q R . X 0.T o . M Y T X   @ o . ",
". o @ . = } l.+.U o .   X x S . - X . X .   : % y 1 . P h.V.3 X o 3 V.h.P . > y % > . . X . X - X S z X   . X Y +.l.Q = . @ o . ",
"X = $ w l { A.G.i.M X X h w   - m h   X   : L ' z o X X } c.C . o C c.| X X o z ' L :   X   b n =   9 h . X B 8.D.A.{ h w $ = X ",
"o = @ . . Q D.H.K.m.G h w   . = Y m o   + u i.m   X Q X   u.K X X K u.  X Q X . n i.u +   o m U = X   f h G v.K.J.D.Q . . @ = X ",
"X = @     q.7.J m ! v.` >   . = G X . O 6 d.F.g.W X   X Y c.p X . a h.Y X   X W g.F.f.3 O . o J - .   > ` v.| B J 7.y.    @ - X ",
". - @ e <.q.M . .   f 9 @       . X   # R N 8.R.h.@.  1.3.;.,     , ;.3.=.  -.j.R.a.N R #   . .       @ 9 f   . . M t.1.w @ - . ",
". - @ { q.  o = o .   %   X X X X   @ : w . M N.Y.d.T  .2.E . X X . ~ 0.| T a.T.N.M   w : +   X X X X   %   . o = o   q.X.@ - . ",
"  - O o.2.. =   @ > 7 X X m n l =   + > o X X Y 5.! . X X 2 o X . X 2 . X . / 5.Y o X = > +   = h n m X X 9 > O . o . 2.o.O -   ",
"  - O C   = . O % 9 . = k #.T X . @ @ . . x.. . ! . e E A   X , % X . v E e . Q .   x.X . @ @ . X ] @.k - . 9 % O . =   C + -   ",
"  o O :   -   O : w X o c s.Y o . + % w o X . J ! . R Y.E   . C Z X   ~ Y.R X ! J X X X w % O . o Y s.x o . f % O   -   % O o   ",
"    O O   ;     @ 9   X f G m =   O 7 B x   x ..~   y >.6     w.9..   0 >.i   ~ ..c   x m 7 O   = m M w X . 7 @     -   + O     ",
"      O   - .       7 . .     .   O 7 M 1.^ O.O.D # . o X X , M.c.* X X X . # D O.O.^ 1.B 7 O   .     . . 7       X -   +       ",
". o X     X - ; = X   $   .       @ % $ 5 s p 6   = - o X 6 N P.J.N 6 X o - =   6 p s 5 % $ +       .   %   . - - - X     X X . ",
"- = - = .   o = - o     . o X X X . . X X X X . = X 2 E q.h.A.W.R.A.h.q.E 2 X = . X X X . X X X X o X .     o - - o   . = - - - ",
"- ; ; ; X     X o =   . o = o o o o o o o o X . X   8 ( e.M.J.E.R.J.M.e.( 2   X . X o o o o o o o o o o .   = o . .   X ; ; ; ; ",
". o o     X - ; = .   @           + % # 4 s p 6   = - o o 6 N P.J.N 6 o o - = . 6 p s 4 $ $ +           @   . - - - X     X o . ",
"      O   - .       1 . .     .   O 7 B <.^ O.O.D & . X X . * M.c., . X X . @ D O.O.^ 1.M 7 +   .     . . 7       . ;   O       ",
"    O +   -     $ 7 . o w M n =   O 7 m x   x ..~   y 0.0     w.9..   0 >.i   ~ ..x   x m 7 +   = m H e X . 7 @     -   O O     ",
"  o O %   -   O : f X o x s.Y o . + % w X X X J ! . R T.^ X o v Z = X ~ Y.R X ! J X X X w % O . o Y s.x o X f : O   -   % O o   ",
"  - + C   = . O % 9 . = z @.T X . + @ . X x.  . Q . e E C . - , % = . A E e . Q X   x.X . @ @ . X ] #.k = . 9 % O . =   C + -   ",
"  - @ o.2.. =   O > 7 X X M m l =   @ > = X X U 5.! . X   1 = X   = 1   . . ! 5.U X X o : +   = h m m X X 7 > @   = . 2.o.+ -   ",
". - + X.q.  o - o .   %   X X . X   + : w   G N.T.d.T | 0.E . = . . ~ 0. .T d.Y.N.J   w : @   o X X .   %   . o = o   y.X.@ - . ",
". - @ w <.t.M . .   f 9 @       . X   @ R N 8.R.j.-.  :.3.;.* . . > ;.3.;.. -.j.R.8.N K #   . .       @ 9 f   . . M w.1.e @ - . ",
". = @ . o t.7.J M | v.` >   -   J X . O < f.F.h.] X X X Y h.a X X a c.Y X   X ] g.F.f.< O . X J   -   > ` v.! M J 7.q.o   $ = . ",
". = # X . ! D.H.K.v.N h f   ; . Y m . . + u i.z . X Q .   u.K X X K e.  X Q X . n i.u O . . m J . ;   f h V m.K.H.D.Q X X @ = . ",
"X o @ w b { A.D.8.B X X h 9   - b l . .   : L ' z = X X  .b.k X o C c.} X X = z ' L % . X   b n -   9 h X X m 8.D.A.{ l w @ = X ",
". o @ . = | l.+.Y X .   X x S . - X . X .   > % y 1 . P h.V.3 . o 3 V.h.P . > y % : . . . . X - . S m X   . X ] X.l.} = . @ o . ",
". o @   X W U M . o ] 0.X   I 7 . = X X   X .   O O @ >.B.X.& X o % ..B.>.@ + +   . .   X X = . 8 I . X 0.] o . N U W X   @ o . ",
". o $ N J b . z . o ..<.X   M ] 7     o m J X .     + # , % @ . o @ % % @ O     . X J m o     1 U M   X 1.} o . m . n J v $ o . ",
". o & $.Y   - b m . o X   m +.V.z 1   - m ] m . o = .         X o       . X = X . m ] m - . 1 n V.+.n   X o . n b -   Y $.% o . ",
". o & 4.0.  ; M g.Y     J +.Z.P.%.l 2 o - .     . l X o = .   X o   . = o X h X     . - o 7 l %.I.S.+.J     U d.B ;   0.4.& o . ",
"  = : @.>.. ; W I.a. .;.p.S.T.D.` h g 7 = ; -   X m Y m 7     o o     7 m Y m X   - ; = 7 g l _ D.T.S.p.;.o.a.U.Q ; . 2.@.: = . ",
"  = > H x . - T L.a.r.r.g.C.D.i.m X . g 9       X J 6.&.7     o o     7 &.6.J X       7 g . X m i.D.C.g.r.2.a.L.T - . c H > =   ",
"  = $ 9 > . = I M. .    M #.d.] = o = X h w 9 2   X B z > .   . o   . 1 z M X   1 7 f h X = o = ] d.#.M      .n.T =   > 9 @ =   ",
"  - @ @ @   . Y q.  R :.   .2.X o L  .=   T k.l 7 X - o X . +   . + . X o = X 2 b k.T   =  .L o X 2. .  :.P   q.U .   @ @ O -   ",
"  =   . . X . . q.  / u.   .1.. X L ! =   w.@.l   > . X   O         O . X . >   h @.q.  =  .A X X 1. .  u./   q.. . X X . . =   ",
"  - . - ; o o o o.n   . Y f.n.] o X X o Q N.]   . % k 2 @   . o = X   @ 2 k % .   ] N.Q X X X o ] n.g.U .   m o.o o = - - . -   ",
"  - @ , v . = h _ m H ] b.J.G.g.Y X . m d.L.o.  o @ u w @   - - o =   @ w e # o . o.L.d.F . X W g.D.J.b.] J m _ h = . x < @ =   ",
"  - $ i O.. - h b .   M H J ] H m h b X.Z.Y.=.. -   % #     ; = . ;     @ @   = . *.Y.Z.X.l l m J Y J M m   . b l - X O.i $ -   ",
". - . - - . ; . o - ; ; ; = = - = = T z.D.L.j.U o o .     . - o   - X     . = o Y j.L.D.z.W o = - = = ; ; ; - = . ; . = - . ;   ",
". = . . . . - . X X o X o X X . . :.o.] [ F 2.0.  . o - - ; X     X - - - = .   0.2.H [ Y o.,.. X X X o o X X X   - . . X   - . ",
". - + y S . - K y o . h h M U ,.1.} o X l X o F m h           . X           b m M o X h o o Q ,.:.U M l h . o 0 ~ - . S y + = . ",
". o O u d X = , 4 = X 7 g g j N N t . . > o   g ) b g w % @   = ;   @ % 9 f b ) g   o > . . t N M j h j 7 X - 4 , = X d u O o . ",
"  X + % & X = > % = X @ % $ @ + @ O O O @ > 1 7 2 1 > % O   X ; ; X   O % > 2 1 1 1 : @ + + + @ + + @ % @ X o % : = X & % @ . . ",
"  o o - - - - - - - ; ; ; ; ; ; ; ; - - = = = = - - - o     X - ; o     = - - = - = = = - - - ; ; ; ; ; ; ; ; - - - - - - o o   ",
"        . o o o o o X X . . . . . X X . X . . . .           . - ; .           . . . X . X . X . . . . X X X X o o o o .         "
};
