/* XPM */
static char *_84516949d71479eb36bfa9f0f05c94eL2b5r0oosZPhWBdX[] = {
/* columns rows colors chars-per-pixel */
"64 64 148 2 ",
"   c None",
".  c #120B07",
"X  c #321B0B",
"o  c #3F250D",
"O  c #650503",
"+  c #660B04",
"@  c #671105",
"#  c #681505",
"$  c #691B07",
"%  c #40270F",
"&  c #412810",
"*  c #6A2008",
"=  c #020265",
"-  c #656565",
";  c #B60D07",
":  c #B71108",
">  c #B81709",
",  c #B91D0B",
"<  c #A30915",
"1  c #BA220C",
"2  c #BB290D",
"3  c #BD340F",
"4  c #BE3F10",
"5  c #D40C1B",
"6  c #DC0D1D",
"7  c #ED140B",
"8  c #EE1D0C",
"9  c #F2140B",
"0  c #FD140D",
"q  c #F31D0C",
"w  c #FE1B0E",
"e  c #E40E1F",
"r  c #FE1710",
"t  c #FF1C13",
"y  c #EF240E",
"u  c #F4240E",
"i  c #FD230F",
"p  c #FF2513",
"a  c #F22C10",
"s  c #FF2C14",
"d  c #F33512",
"f  c #FF3316",
"g  c #F33D12",
"h  c #FF3B15",
"j  c #FF3B18",
"k  c #E50F20",
"l  c #E51425",
"z  c #BF4612",
"x  c #B15718",
"c  c #B15A19",
"v  c #C04D14",
"b  c #C05414",
"n  c #C05B16",
"m  c #F54614",
"M  c #FF4316",
"N  c #F54F15",
"B  c #FE4B17",
"V  c #FF431A",
"C  c #FF4B1A",
"Z  c #FF5017",
"A  c #F45817",
"S  c #FB5817",
"D  c #FF531B",
"F  c #FF5C1C",
"G  c #DF741D",
"H  c #F56119",
"J  c #FF641D",
"K  c #F66A1A",
"L  c #FF6B1D",
"P  c #F6721C",
"I  c #FD731E",
"U  c #F67A1E",
"Y  c #FB7B1F",
"T  c #FF6D20",
"R  c #FE7421",
"E  c #FC7C22",
"W  c #F7831F",
"Q  c #F8831F",
"!  c #F98422",
"~  c #0606B5",
"^  c #0808EB",
"/  c #0808F2",
"(  c #0D0DFE",
")  c #0F10FC",
"_  c #1515FB",
"`  c #1010FD",
"'  c #1111FD",
"]  c #1011FD",
"[  c #1212FD",
"{  c #1010FE",
"}  c #1111FE",
"|  c #1010FF",
" . c #1111FF",
".. c #1212FE",
"X. c #1313FE",
"o. c #1212FF",
"O. c #1313FF",
"+. c #1515FC",
"@. c #1717FC",
"#. c #1414FF",
"$. c #1515FF",
"%. c #1515FE",
"&. c #1717FE",
"*. c #1616FF",
"=. c #1717FF",
"-. c #1616FE",
";. c #1212FB",
":. c #1919FC",
">. c #1818FC",
",. c #1A1AFC",
"<. c #1B1BFC",
"1. c #1818FE",
"2. c #1818FF",
"3. c #A5A5B2",
"4. c #B2B2B2",
"5. c gray71",
"6. c #B4B4B4",
"7. c #D2D2D2",
"8. c #DADADA",
"9. c #DFDFDF",
"0. c #D7D7E8",
"q. c #DCDCED",
"w. c #E2E2E2",
"e. c #E7E7E7",
"r. c gray90",
"t. c gray91",
"y. c #E9E9E9",
"u. c gray92",
"i. c #EAEAEA",
"p. c #EEEEEE",
"a. c #E4E4F5",
"s. c #E8E8FA",
"d. c #E9E9FA",
"f. c #EAEAFA",
"g. c #EAEAFB",
"h. c #EBEBFB",
"j. c #E8E8F8",
"k. c #F1F1F1",
"l. c gray94",
"z. c #F7F7F7",
"x. c gray96",
"c. c #F8F8F8",
"v. c #F9F9F9",
"b. c #FBFBFB",
"n. c gray98",
"m. c #FDFDFD",
"M. c #FEFEFE",
"N. c white",
/* pixels */
"                                                                                                                                ",
"                                                                                                                                ",
"                                                                                                                                ",
"                                                                                                                                ",
"                                                                                                                                ",
"                                                                                                                                ",
"                                                                                                                                ",
"                                                                                                                                ",
"  7.9.r.t.t.t.t.t.t.t.t.t.t.t.t.t.t.t.p.t.t.t.t.p.t.t.t.p.t.t.t.t.p.t.t.t.t.t.p.t.t.t.t.t.t.t.p.t.t.t.t.t.t.t.t.t.t.t.r.w.9.    ",
"  w.p.z.c.c.c.c.c.c.c.c.c.c.c.c.c.c.c.c.c.c.c.c.c.c.c.c.c.c.c.c.c.c.c.c.c.c.c.c.c.c.c.c.c.c.c.c.c.c.c.c.c.c.c.c.c.c.c.z.k.r.4.  ",
"  t.z.M.M.M.M.M.M.M.M.M.M.M.M.M.M.M.M.M.M.M.M.M.M.M.M.M.M.M.M.M.M.M.M.M.M.M.M.M.M.M.M.M.M.M.M.M.M.M.M.M.M.M.M.M.M.M.M.M.c.p.4.  ",
"  t.c.M.M.M.M.M.M.M.M.M.M.M.M.M.M.M.M.M.M.M.M.M.M.M.M.M.M.M.M.M.M.M.M.M.M.M.M.M.M.M.M.M.M.M.M.M.M.M.M.M.M.M.M.M.M.M.M.M.M.k.6.  ",
"- t.c.M.M.M.M.M.M.M.M.M.M.M.M.M.M.M.M.M.M.M.M.M.M.M.M.M.M.M.M.M.M.M.M.M.M.M.M.M.M.M.M.M.M.M.M.M.M.M.M.M.M.M.M.M.M.M.M.M.c.k.4.  ",
"- p.c.M.M.M.M.M.M.M.M.M.M.M.M.M.M.M.M.M.M.M.M.M.M.M.M.M.M.M.M.M.M.M.M.M.M.M.M.M.M.M.M.M.M.M.M.M.M.M.M.M.M.M.M.M.M.M.M.M.M.k.6.  ",
"- t.c.M.M.M.M.M.M.M.M.M.M.M.M.M.M.M.M.M.M.M.M.M.M.M.M.M.M.M.M.M.M.M.M.M.M.M.M.M.M.M.M.M.M.M.M.M.M.M.M.M.M.M.M.M.M.M.M.M.M.k.6.  ",
"- p.c.M.M.M.M.M.M.M.M.M.M.M.M.M.M.M.M.M.M.M.M.M.M.M.M.M.M.M.M.M.M.M.M.M.M.M.M.M.M.M.M.M.M.M.M.M.M.M.M.M.M.M.M.M.M.M.M.M.c.k.6.  ",
"- p.c.M.M.M.M.M.M.M.M.M.M.M.M.M.M.M.M.M.M.M.M.M.M.M.M.M.M.M.M.M.M.M.M.M.M.M.M.M.M.M.M.M.M.M.M.M.M.M.M.M.M.M.M.M.M.M.M.M.M.k.6.  ",
"- t.c.M.M.M.M.M.M.M.M.M.M.M.M.M.M.M.M.M.M.M.M.M.M.M.M.M.M.M.M.M.M.M.M.M.M.M.M.M.M.M.M.M.M.M.M.M.M.M.M.M.M.M.M.M.M.M.M.M.c.k.6.  ",
"- t.c.M.M.M.M.M.M.M.M.M.M.M.M.M.M.M.M.M.M.M.M.M.M.M.M.M.M.M.M.M.M.M.M.M.M.M.M.M.M.M.M.M.M.M.M.M.M.M.M.M.M.M.M.M.M.M.M.M.c.k.6.  ",
"- p.c.M.M.M.M.M.M.M.M.M.M.M.M.M.M.M.M.M.M.M.M.M.M.M.M.M.M.M.M.M.M.M.M.M.M.M.M.M.M.M.M.M.M.M.M.M.M.M.M.M.M.M.M.M.M.M.M.M.M.z.5.  ",
"- u.c.M.M.M.M.M.M.M.M.M.M.M.M.M.M.M.M.M.M.M.M.M.M.M.M.M.M.M.M.M.M.M.M.M.M.M.M.M.M.M.M.M.M.M.M.M.M.M.M.M.M.M.M.M.M.M.M.M.c.k.6.  ",
"- u.c.M.M.M.M.M.M.M.M.M.M.M.M.M.M.M.M.M.M.M.M.M.M.M.M.M.M.M.M.M.M.M.M.M.M.M.M.M.M.M.M.M.M.M.M.M.M.M.M.M.M.M.M.M.M.M.M.M.M.k.6.  ",
"- u.c.M.M.M.M.M.M.M.M.M.M.M.M.M.M.M.M.M.M.M.M.M.M.M.M.M.M.M.M.M.M.M.M.M.M.M.M.M.M.M.M.M.M.M.M.M.M.M.M.M.M.M.M.M.M.M.M.M.M.k.6.  ",
"  0.a.d.h.h.h.h.h.h.h.h.h.h.h.h.h.h.h.h.h.h.h.h.h.h.h.h.h.h.d.d.d.d.d.d.d.d.d.d.d.d.d.d.d.d.j.j.d.d.d.s.d.d.d.d.d.h.d.d.d.q.3.  ",
"= ^ ( ;._ _ +._ _ +.:.:.:.<.:.:.:.:.:.<.<.<.<.:.<.:.<.:.:.+.+.+.+.] _ ;._ _ ;.;.;.;.;.;.;.;.] ;.;.;.] ] ;.] (  . .( ( ( ( ^ ~   ",
"= ^ ( (  . . . .+.+.+.+.+.+.:.:.:.:.:.:.+.:.:.:.:.+. .+.+. .+. . .O. .O. .] ;. .O.;.O.O.O.;. . . .] ] | ) (  .( ( ( ( ( / / ~   ",
"= ^ / ( (  . . . .+.+.+.+.:.+.:.+.:.:.:.:.:.+. . . .+. . . .+. .O. .O. .O. .O. .O. .O. .O. . . . . .| | | ( ( ( ( ( ( ( ( / ~   ",
"= ^ ( ]  . . . .+.+.+.+.+.:.+.+.+.:.+.+. .+. . . .+. . .+. . . . .O. .O. .O. .O. .O. .O. .O.O. . . . .|  .|  .( ( ( ( ( ( / ~   ",
"= ^ / (  . . . . .+.+.+.+.+.+.:.:.+. . .+. .+. . .+. .+. . .+. .O. .O. .O. .O. .O. .O. .O. .O. . . . . . .( ( ( ( ( ( ( ( / ~   ",
"= ^ ( ( (  . . . . . .+.+.+.+.+. . . .+.+. . . . . . .+.+. . . . .O. .O. .O. .O. .O. .O. .O. . . . . . .( ( (  .( ( ( ( / / ~   ",
"= ^ / ( ( |  . .+.+.O.+.+.+. . . . .+. . .+. .+.+. .+. . .+. . .O. .O. .O. .O. .O. .O. .O. . . . . . .| ( ( ( ( ( ( ( ( ( / ~   ",
"= ^ / ( (  . . . . .O. . . . . .+. . . . . . . . . . . . . . .+. .O. .O. .O. .O. .O. .O. .O. . . . . .| ( ( ( ( ( ( ( ( ( / ~   ",
"= ^ / ( ( | | | |  . .|  . . . . .O. .O. .O. .O. .O. .O. .O. .O.O. .O. .O. .O. . .O. .O. .O.O. . . . .| | ( ( | ( ( ( ( ( / ~   ",
"= ^ ( ( ( ( | |  .| | |  . . . .O. .O. .O. .O. .O. .O. .O. .O. . .O. .O. .O. .O.O. .O. .O. . . . . . .|  .| | ( ( ( ( ( / / ~   ",
"= ^ ( ( ( | ( | | | | |  . . . . .O. .O. .O. .O. .O. .O. .O. .O.O. .O. .O. .O. . .O. .O. .O. . . . . .| | ( ( | ( ( ( ( ( / ~   ",
"= ^ / ( ( ( ( ( ( | | | |  . . .O. .O. .O. .O. .O. .O. .O. .O. . .O. .O. .O. .O.O. .O. .O. .O. . . . .| | | | ( ( ( ( ( ( / ~   ",
"= ^ / ( ( ( ( ( ( ( | | |  . . . .O. .O. .O. .O. .O. .O. .O. .O.O. .O. .O. .O. . .O. .O.O. . . . . .| | | | | ( ( ( ( ( ( / ~   ",
"= ^ ( ( ( ( ( ( | | | | |  . . . . .O. .O. .O. .O. .O. .O. .O. . .O. .O. .O. .O.O. .O. . .O. . . . .| | | ( ( ( ( ( ( ( / / ~   ",
"= ^ / ( ( ( ( ( ( ) | | )  .| | ;. . .;. .O.O. .;. . .;. .O. .| O. .O. .O.O.O. .O.;.;.O.O. .|  . .| | | | ( ( ( ( ( ( ( ( / ~   ",
"= ^ / ( / ( ( ` ) ) ( | |  .| | | | ;.O.;. .;.;.O. .;.O.O. .O.| ;.;.;.;.] ] O.;. .;. . .;. .| ( ;.| ) ;.) ) ) ` ( ( ( ( ( / ~   ",
"  5 e e e e k l l k l l l l l l l l l l l l l l l l l l l l l l l l l l l l l l l l l l l l l l l l l l l l l k 6 6 k e e 6 <   ",
"O 7 9 0 0 0 0 0 r t r r r r t t t r r t t t t t t t t t t t t t t t r t t t t t l t t t t t t t t r 0 t w 0 w 0 0 0 0 0 0 9 ;   ",
"O 7 0 w w w w t t t t t t t t p t t p t t p t t l p p p t l p t p t t p t t t t t t t t p t t l t t t t t w w w r t 0 w w 9 :   ",
"O 8 q t t w i i t p p p p p p p p p p p p p p p p s p l p p s p p p p p p p s s s p s s p p p p p p p p p p i i t t i w w q >   ",
"+ u i i p s i s s s p s s s s s s s s s s s s s s s s s l f f j s s s s s s s s s s s s s s s s s s s s i s i s s i i i i u ,   ",
"+ a d i s s f f f s f f f f f f f f f j f f f f f j f f j f f l f f f f f f f f f f f f f j f f f f f f f f f f f f f s a a 1   ",
"@ d d d h f f h j j f j j j j j j j j j j j j j j j j j V j V j j j j j j j j j j j j j j j j j j j j j h f f h h f h f f d 2   ",
"@ g m h h M h M j V V V V V V V V V V V V V V V V V V V V V V V V V V V V V V V V V V V V V V V V V V j M M M M h M h M h g 3   ",
"# m m B B B B B C C C C C C C C C C C C C C C C C C C C C C C C C C C C C C C C C C C C C C C C C C C C C C C C C B M B M m 3   ",
"# N B Z B Z C Z Z Z D Z D D D D D D D D D D D D D D D D D D D D D D D D D D D D D D D D D D D D D D D D Z Z Z Z Z Z Z Z Z N z   ",
"$ S S S S S S F F F F F F F F F F F F F J D J D F F F F D F F F F F D F F F D F F F D F F F F F F F F F F F F F F S F S S S v   ",
"$ H H J J J J J J J J J T J J J F T J T T J T J T F T T T F T T J T T F T T T T T T T F T T J T J J J J J J J J J J J F J H v   ",
"$ K L L L L L L L L L L L T T T R T T T T T T T T T T T T T T T T T T T T T T T T T T T T T T T T T L L T L L L L L L L J K b   ",
"* P P I I I I I R I R I R R R R R R R R R R R R R T R R R R R R R R R R R R R R T T R R R R R R R R R I R R R I I I I I I P n   ",
"  U Y Y Y Y Y Y E E E E E E E E E E E E E E E E E E E E E E E E E E E E E E E E E E E E E E E E E E E E E Y E Y Y Y Y Y Y Y x   ",
"  c W W Q Q Q Q Q ! ! ! ! ! ! ! ! ! ! ! ! ! ! ! ! ! ! ! ! ! ! ! ! ! ! ! ! ! ! ! ! ! ! ! ! ! ! ! ! ! ! ! ! ! ! Q ! Q Q W W G     ",
"    X o % o o % % % % & & & & & & & & & & & & & & & & & & & & & & & & & & & & & & & & & & & & & & & & & % % % % % % o o o .     ",
"                                                                                                                                ",
"                                                                                                                                ",
"                                                                                                                                ",
"                                                                                                                                ",
"                                                                                                                                ",
"                                                                                                                                ",
"                                                                                                                                "
};
