/* XPM */
static char *_8b29faf67764445efbad221e3de6e68rDJOOWE9vyjVqJ9M[] = {
/* columns rows colors chars-per-pixel */
"64 64 177 2 ",
"   c #013624",
".  c #013825",
"X  c #013C28",
"o  c #013E29",
"O  c #013F2A",
"+  c #01412B",
"@  c #01422B",
"#  c #01442C",
"$  c #01452D",
"%  c #01472E",
"&  c #01482F",
"*  c #014A30",
"=  c #014B31",
"-  c #014D32",
";  c #014E33",
":  c #015034",
">  c #015135",
",  c #015336",
"<  c #015437",
"1  c #015638",
"2  c #015739",
"3  c #005939",
"4  c #015A3A",
"5  c #025B3B",
"6  c #035C3C",
"7  c #045D3D",
"8  c #055E3E",
"9  c #065F3F",
"0  c #076040",
"q  c #086141",
"w  c #096242",
"e  c #0A6343",
"r  c #0B6444",
"t  c #0C6545",
"y  c #0D6646",
"u  c #0E6747",
"i  c #0F6848",
"p  c #106949",
"a  c #116A4A",
"s  c #126B4B",
"d  c #136C4C",
"f  c #146D4D",
"g  c #156E4E",
"h  c #166F4F",
"j  c #177050",
"k  c #187151",
"l  c #197252",
"z  c #1A7353",
"x  c #1B7454",
"c  c #1C7555",
"v  c #1D7656",
"b  c #1E7757",
"n  c #1F7858",
"m  c #207959",
"M  c #217A5A",
"N  c #227B5B",
"B  c #237C5C",
"V  c #247D5D",
"C  c #257E5E",
"Z  c #267F5F",
"A  c #278060",
"S  c #288161",
"D  c #298262",
"F  c #2A8363",
"G  c #2B8464",
"H  c #2C8565",
"J  c #2D8666",
"K  c #2E8767",
"L  c #2F8868",
"P  c #308969",
"I  c #318A6A",
"U  c #328B6B",
"Y  c #338C6C",
"T  c #348D6D",
"R  c #358E6E",
"E  c #368F6F",
"W  c #379070",
"Q  c #389171",
"!  c #399272",
"~  c #3A9373",
"^  c #3B9474",
"/  c #3C9575",
"(  c #3D9676",
")  c #3E9777",
"_  c #3F9878",
"`  c #409979",
"'  c #419A7A",
"]  c #429B7B",
"[  c #439C7C",
"{  c #449D7D",
"}  c #459E7E",
"|  c #469F7F",
" . c #47A080",
".. c #48A181",
"X. c #49A282",
"o. c #4AA383",
"O. c #4BA484",
"+. c #4CA585",
"@. c #4DA686",
"#. c #4EA787",
"$. c #4FA888",
"%. c #50A989",
"&. c #51AA8A",
"*. c #52AB8B",
"=. c #53AC8C",
"-. c #54AD8D",
";. c #55AE8E",
":. c #56AF8F",
">. c #57B090",
",. c #58B191",
"<. c #59B292",
"1. c #5AB393",
"2. c #5BB494",
"3. c #5CB595",
"4. c #5DB696",
"5. c #5EB797",
"6. c #5FB898",
"7. c #60B999",
"8. c #61BA9A",
"9. c #62BB9B",
"0. c #63BC9C",
"q. c #64BD9D",
"w. c #65BE9E",
"e. c #66BF9F",
"r. c #67C0A0",
"t. c #68C1A1",
"y. c #69C2A2",
"u. c #6AC3A3",
"i. c #6BC4A4",
"p. c #6CC5A5",
"a. c #6DC6A6",
"s. c #6EC7A7",
"d. c #6FC8A8",
"f. c #70C9A9",
"g. c #71CAAA",
"h. c #72CBAB",
"j. c #73CCAC",
"k. c #74CDAD",
"l. c #75CEAE",
"z. c #76CFAF",
"x. c #77D0B0",
"c. c #78D1B1",
"v. c #79D2B2",
"b. c #7AD3B3",
"n. c #7BD4B4",
"m. c #7CD5B5",
"M. c #7DD6B6",
"N. c #7ED7B7",
"B. c #7FD8B8",
"V. c #80D9B9",
"C. c #81DABA",
"Z. c #82DBBB",
"A. c #83DCBC",
"S. c #84DDBD",
"D. c #85DEBE",
"F. c #86DFBF",
"G. c #87E0C0",
"H. c #88E1C1",
"J. c #89E2C2",
"K. c #8AE3C3",
"L. c #8BE4C4",
"P. c #8CE5C5",
"I. c #8DE6C6",
"U. c #8EE7C7",
"Y. c #8FE8C8",
"T. c #90E9C9",
"R. c #91EACA",
"E. c #92EBCB",
"W. c #93ECCC",
"Q. c #94EDCD",
"!. c #95EECE",
"~. c #96EFCF",
"^. c #97F0D0",
"/. c #98F1D1",
"(. c #99F2D2",
"). c #9AF3D3",
"_. c #A0F9D9",
/* pixels */
"2.7.t.t.a.t.q.7.5.5.5.5.6.7.5.&.| ~ E U U E E E W ! ! ! ~ ~ ~ ! ` ;.>.>.1.2.2.5.5.2.2.2.1.>.7.e.e.q.q.8.8.q.t.r.0.7.4.7.5.7.>.&.",
"7.v.P.J.v.7.5.1.;.@.@.X. .` ) E K D N b b b N N A A F K I E E E E ~ ^ ) ) ] | | X.+.#.%.-.>.5.q.e.r.t.r.p.z.k.z.d.t.t.u.q.z.7.>.",
"0.P.v.z.5.2.=.| ) ) ! E H A N z k f f s f f z c N N N b b N C D A A A F H I T E ! ^ ) ) ` | -.;.>.0.e.q.a.b.A.!.J.A.d.s.f.n.q.>.",
"q.D.5.;.;.@.) ! E I H C N n c x k a i i i i i i s z b C C N b z z h h f s s z m C K E ! ^ ` +.;.1.7.q.q.e.7.0.e.a.J.A.z.).M.u.7.",
"6.f.;.$. .I Y I H C N x e 6 e 3 3 5 t k z z h s i i t t e e w i p s s i h c z a a h N H T ! ) | #.1.5.4.7.7.7.e.u.s.T.A.!.m.a.8.",
"7.5.$. .A C D A A F b < i O.a.v.M.m.7.~ ] ~ ~ ~ ! E ] ` ! E P A N z k i 9 : > 0 a a a k b A K E ! { -.7.7.5.7.7.r.p.j.H.L.V.V.r.",
"q.A.O.I C C N t i f = = = + X + > ) u.z.| X.#.] ! P ] +.X.) ~ ~ ! ~ ! ~ ) ) ! N 9 < < 5 t a h c A U ) @.5.7.5.4.8.p.k.T.b.M.D.t.",
"f.z.` C N N 9 a ) L $ 1 e j x i w s K -.8.~ K ] @.] A ] X.&.| ) X.X.-.&.X.| ` ` | { I a < : 6 w t h C E X.2.4.5.7.e.a.L.D.b.P.t.",
"z.q.Y N N c < N #.=.! U I A F V N s t b -.u.F A ~ ) X.H ) +.| >.-.@.%.2.2.%.~ ` X.&.| ] ! C 5 : 5 i i z K X.4.7.5.8.t.j.n.z.T.t.",
"2.{ H C D D 5 t Y { ] #.=. .Y V N A C w w U s.{ F P | ~ N U &.| 2.2.&.-.-.u.u.-.| ;.@.) -.+.W N 1 : w i z E | 2.4.4.q.p.f.z.Y.a.",
";.) L K H C c 3 0 h f a h A | ` N A D A z w s ) | I K ] K i N | | @.5.2.-.>.d.s.8.4.7.2.) @.%.^ A < & 5 i z E | 1.1.2.r.z.k.k.p.",
"&.W H F n N N f 6 9 w t h a i N ] K A F A b s z ] ] K U | A i N ) X.) #.7.>.&.p.7.q.0.u.q.&.>.%.Q z 5 & 9 i z U | -.;.5.z.z.f.t.",
"| H C b h 9 9 a z z s 9 5 9 i s V F N A A P h h i ` { | K +.F 9 c H X.) X.7.&.;.s.m.u.r.v.a.&.m.3.] A 9 < 9 w z T | @.%.7.p.u.e.",
") N c f 1 0 w L ~ E _  .G h 6 9 h F c N A F N s i a | >.E E @.U i k A ] X.2.5.;.%.X.k.a.m.k.e.e.j.,.) E w & 9 w c H K ) &.8.t.e.",
"U c f 5 6 3 < n u.N r N =.=.j s 1 s N b b A b z h 9 c E 8.b #.p.E 0 h F -.7.2.5.u.X.| b.z.V.V.0.b.6.3.#.E w = 9 t z N E { 2.p.p.",
"F z r + a n b.) W b E C ~ _ 0 i t < s b z b N z i 9 5 A e.E D 4.a.C 9 z H ;.7.>.4.;.I &.L.t.r.v.A.s.s.e.e.) r & 9 t z H ^ %.t.a.",
"A h > w  .X.~ n K j.8.2.b U U F s s # 9 h c b N s 9 # c >.-.h %.u.#.b w N U u.#.] 8.E F u.M.4.~ >.D.8.k.z.2.~ s & 5 t m E | 0.s.",
"N s & A P.~ b $.P ~ | ) K s k _ %.K w # 5 s b b z 9 + a E e.f N u.s.E z 5 A { u.| M.X.N ) L.8.] ) b.p.s.e.b.-.~ t : 6 i P ) 2.s.",
"b r & X.8.z b ~ s b h s k c w | 2.H U q # 5 h b b i & w N s.c i #.b.X.K h w K k.] e.e.b U -.A.X.U -.D.s.2.8.M.2.U w & w c ~ -.e.",
"x w = 6.2.z X.) c i q q w c h p >.>.Q n t # 9 h z s = 1 N z.F 5 U b.e.E A s s 3.>.| z.A A E z.| U A D.z.X.3.>.M.` A 5 9 i E X.e.",
"N 9 : ]  .D E Y i < : h w 9 < T -.-.~ S b i # 9 i i : = N b.W 3 b D.e.b.~ A i ) >.| e.E h E | ] U h #.L.2.#.#.m.0.X.p 9 p K | 8.",
"b 3 : >.z.) K s & i # N A w = h Q E ~ K b K q & 0 i & & T r.{ 9 i j.2.u.A.X.z N 2.#.-.) 5 S E ~ K z N M.u.X.| X.d.7.F 5 i K { 7.",
"i 5 : ) A.| z e & ] < s z w < c X.] T A m F T f w < o 6 s.&.X.z 1 2.8.| s.M.E i #.] ] ) 1 F K A F f z #.j.>.E K 2.b.] 6 f U ) 4.",
"< D h j 0.A.N 3 = H.# 5 s 9 1 V 8.2.~ P F b i w : & t ;.e.) ) N = ) j.F ) 4.4.s ] E F b 1 z z b h < A U 2.-./ N ` D.-.s t E ) 2.",
"> | @.3 ` A.! 3 3 ^.  e b : w >.S.M.e.| H E F i s A ) %.` ~ H N 5 z i.S T H ,.A h s 9 < : : 5 i t : f V W ` P c E M.e.z w K ^ 2.",
"> ~ a.< a | ! 0 f W.  f 1 = ~ Y.L.j.4.2.&.E T n k z b ~ ~ W z b h i ,.l c c J A 5 9 = 9 i w 9 9 : : 0 V f P H c E u.z.b 0 A ~ -.",
"3 z ).f 3 c 9 3 F P.& t o z D.J.I.e.S ,.{ h h S K s b U c w 9 s z w ! i w t i t 3 1 V U U E K N w 1 < 0 z m T h P >.M.A < N ^ -.",
"h e ~.7.= 3 a k b I = = = _ 2.~ M.>.F 2.2.K U F s a w s 1 < 5 5 : 5 5 & < < w 4 & s ~ | | | X.| U s t # p f W f U %.V.T : m W +.",
"I < a.E.e k t.r.] F 9 o N #.U z u.-.T e.U ~ E h F s p : w N b s , & 1 F ~ H z w # A X.7.4.3.4.4.2.] b 9 : t T 0 K | d.{ < k W X.",
"! 9 z A.A t 7.P.b.#.5 X b F f z K ) Q X.S Q z N A : & 5 h z z s 6 o s ~ +.&.] z : N | >.>.%.#.-.>.>.) s : 1 c < V U 7.+.1 h ~ X.",
"^ P 6 t 9 w H m.b.N # & N s w t K Q K T z c i E 5 # a m ] | ~ U k + h / >.2.{ S s z A S N c z m P { | K 0 : w 1 N F 4.+.6 p ~ X.",
") W k e & 9 3 f.z.a >.s s 5 9 b N A K -.z n Q A & 1 c P -.-.| ~ K w V ^ ) U c f s i i w t w t w t i z F N 1 + 6 k A 2.+.0 i ~ | ",
") E x h & p.s.>.t.5 b 5 : 1 i A 5 P A X.E S S s # 9 s F &.2.-.{ ) E ) ] F N h t 0 w w w w w p c z s i i z s & # s N >.| 1 t W | ",
"] ~ N x 3 9 A E &.3 3 & : f w k s ) g.T n Q i H # 5 s c ^ -.-.| ` ) ) U h 5 6 t m T ~ E m p w 0 0 t i h < s 9 # 1 h X.| < i ~ | ",
"| ~ K n z = & z F < 5 # t s i b -.-.3.U w P E b : 1 i h b A U U K z w 1 , i T { ~ K A h K ~ U N t 0 9 s 9 s w 9 & 5 ^ | : i E ] ",
"-.) E V b i & 5 V & & , N 9 h 1 p P u.E h s ,.A b 9 i t s h i q 5 : s ` X.P z i i i s 9 6 i U #.>.] w w 7 t h w 5 % z ] : s ~ | ",
"2._ ~ U N N w = t + # t &.z m X.-.A z.K U 4 P ] c z 7 a a t w < s ] X.E k k s w i i s s f w , # z -.>.s q 9 A i f : : ~ : k ~ #.",
"2.| ~ E F A A 9 3 & 3 H E H ] b | b.m.N K A c b.2.A h 1 w a h P #.` N z s 0 t f h h s h h z z f = b b.K w 5 F z i w + i & b ~ -.",
"4.#.) ~ U C F z : = f E 9 %.-.X.E U c P P E U Q #.Q z f s U #.s.) h 5 = t 0 h p f h b N F P U U F 5 e.| 9 5 F N t s 9 & : F ] %.",
"2.>.) ~ U N N s = f r.-.w F | ] A E A K F Q A T E c.{ K K D.Y.,.6 < 5 9 i i f b K W ] -.#.| ) ~ E f A ,.i 5 F H A I w < 1 ~ X.-.",
"2.2.] ~ U A z w 5 t 7.m.y.{ | ~ Q A w w z b k c P p.2.| j.j.S 9 5 9 q w f F E ~ ] #.4.0.8.8.>.] T z 5 | s 6 H U A K h 0 w ) X.%.",
"2.>.X.~ U V h i w 1 b z.-.S Q Q A w 5 p c b 7 F | -.8.| ~ K 4 4 w w s A E / ` | -.4.4.b.A.k.4.#.T h < K p w K ~ T H N p P ] #.-.",
"2.>.#./ E N s i f < < A j.p.f h h q , s k A A { | ] >.| P 1 , 9 i m ~ ) ] X.%.>.7.8.8.p.b.e.4.-.I p < F 0 h U ) ~ F C K ~ | >.-.",
"2.>.>.) E A s f a f : : < s.D.H k q & 9 & 7 s b N m t & < % 0 i V ) | X.-.>.2.8.r.u.8.8.b.j.,.+.N e 9 V 5 N W ) ^ F F ) ` X.1.>.",
"8.8.2.{ ~ U h j c z k 4 1 % -.P.+.t 1 & : - # + + + o + # 5 s V ~ X.X.>.>.2.r.j.M.z.e.b.z.8.>.W z < c s 9 F ~ X.` U ) %.+.>.7.>.",
"8.8.2.X.) E A b k c m N a 7 - f y.%.A q & & & : = : 5 # < t N W X.-.>.2.2.p.Y.T.).b.p.V.r.2.` b s & A t p E ` #.| { #.>.-.7.8.1.",
"8.8.2.=.) ~ E F b z k z b A p : i +.| S i 4 9 w p f < < s m A ` >.-.3.2.e.).~./.Y.s.u.A.e.| F h 6 e N w b ) | &.X.#.-.>.>.j.e.>.",
"8.0.>.=.| ~ ~ W T K H K K A c h q 7 T P k F s w k 9 + 9 s H ~ X.>.2.8.8.e.s./.E.D.s.c.e.X.T b w & V k f W +.-.-.#.-.>.-.2.c.0.1.",
"4.8.-. .| ~ ~ ~ ~ ~ E K b i r i 0 1 h z s p I & w < w p A P ~ X.,.2.7.6.8.M.M.A.m.4.s.#.) A i = 1 N w H | -.#.>.-.>.,.2.2.0.4.3.",
"6.8.>.] ~ ~ E E U F w 9 s h F E ^ { | ` ` W 1.t 5 0 t s N P ~ ` >.4.4.e.A.z.s.s.,.-.%.{ F h & 7 z i b ` -.#.>.4.-.>.4.8.8.e.4.2.",
"4.4.>._ ~ A z i b #.z.b.r.2.-.#.%.+.X.%.) ` ` N < t s p V T ~ ^ X.4.4.8.s.4.7.2.>.#.| K h 7 9 z i h T #.&.-.e.8.2.2.7.8.j.g.7.2.",
"2.2.X./ K w i w 2.s.>.X.~ ~ N 1 + + o + + + o + , p a p p z U E ) >.8.3.q.e.4.,.-.| P c w 9 A w s S ] -.-.8.y.e.7.4.y.z.T.V.4.>.",
"2.>.| ~ N i z K ) U #.| b = $ > 6 i z c h w : # # + # : 6 t k F ~ X.4.8.8.2.#.X._ U z w 9 f t a N U X.-.4.u.k.u.8.8.e.p.E.b.4.-.",
"2.2.| ~ s w N x D 4.N 9 3 5 a U W A p t : # 5 h k f p 1 : # 1 f H ~ | -.2.-.) / U z w q a i i S F ` -.>.r.u.M.b.r.s.S.M.E.e.2.#.",
"4.>.| ~ z 9 z h ~ z w a C E D N a t w 6 + A -.2.1.{ a 1 s z 6 9 i F ~ ) | X.~ E k w s s s a N A E X.>.7.u.e.b.Y.z.).I.A.~.e.2.+.",
"j.2.] E b 9 w N h h f I E c F z b t s % T 0.E / V 0 P 2.h H H t 9 9 i T ~ K n q 1 < h s i N A E | -.>.8.u.8.u.z.b.s.k.T.D.e.>.X.",
"z.0.{ E c h 0 m E h U E N E C c z t 7 K z.7 4 m E i 9 ,.w K -.S q 1 # & 8 a i w : h s h N A U ` -.>.>.e.8.8.u.u.j.Y.Y.M.D.k.>.| ",
"v.v.] E N A K T U c ~ H H W h T p w : 8.f # < 6 z t w U m.] b 1 h c i , # 4 p : s f s b H E ) #.-.#.2.w.4.e.e.r.s.J.L.E.L.s.-.{ ",
"s.z.` ~ K H ! ~ I c ~ A E I z E w w 1 f.q i a : i & #.X.e.j.c f K +.A K U ~ b h i k F U ~ ) #.-.#.>.4.8.r.b.u.e.s.s.c.E.V.8.%.] ",
"u.b.` ) ~ E ~ ~ ~ h K F ! E z N w w < e.w A m q & w F 4.4.{ ~ E #.H z / ] k i h A U E ) | -.,.-.-.4.s.b.L.z.e.b.D.V.L.~.V.e.-.] ",
"b.D.X.X.| ] ) ~ ~ I z A E ~ U C p q t -.: P U m 7 & i A c N #.c.| m i h f h A T ~ ~ ] +.>.,.2.2.e.A.k.z.m.L.Y.H.L.S.z.~.z.b.2.] ",
"R.z.2.5.%.#.X.{ ~ ~ U z b U W K k h f % & A ~ T N w < & < w i 0 t w s N K Q ~ ) ` | -.>.8.0.7.4.p.z.V.Y.E.H.D.Q.E.c.8.d.I.D.2.| ",
"e.e.m.A.q.>.&.+.| ) ~ ~ I K ! E A A K f 1 N ) | ) T H c 9 : # & q N E ~ ~ / { X.-.-.-.,.p.4.>.#.-.e.s.e.2.>.>.2.2.2.2.4.7.8.>.&.",
"4.2.%.>.1.1.1.>.>.@.] ) ~ ~ ~ ! E U ~ ~ P ) &.2.,.+./ Q E E T E ~ ~ ) { | -.>.>.>.-.>.2.,.>.-.#.#.2.4.2.2.2.2.4.4.4.4.4.2.2.>.-."
};
