/* XPM */
static char * zelda_xpm[] = {
"32 32 4 1",
" 	c #008088",
".	c #183C5C",
"+	c #00E8D8",
"@	c #000000",
" .+      .+      .+      .+     ",
" .       .       .       .      ",
" .       .       .       .      ",
"................................",
"     .+      .+      .+      .+ ",
"     .       .       .       .  ",
"     .       .       .       .  ",
"................................",
"                                ",
"                                ",
"       +++.          .+++       ",
"      ++++..        ..++++      ",
"     ++++....      ....++++     ",
"     ++++....      ....++++     ",
"     @@@@@...      ...@@@@@     ",
"        @@@@.      .@@@@        ",
"                                ",
"                                ",
"                                ",
"................................",
"++.+++++++++++++++++++++++++.+++",
"  .+                        .+  ",
"  .+                        .+  ",
"   .+                      .+   ",
"   .+                      .+   ",
"    .+                    .+    ",
"    .+                    .+    ",
"................................",
"++++++++++++++++++++++++++++++++",
"                                ",
"                                ",
"                                "};
